<svg width="49" height="48" viewBox="0 0 49 48" fill="none" xmlns="http://www.w3.org/2000/svg">
<path d="M38.5619 21.307C38.4839 21.278 38.4313 21.2048 38.4297 21.1216L38.4287 21.0702V18.1068L38.9894 15.7354C39.097 15.2807 38.752 14.8447 38.2847 14.8447H29.4719C29.0047 14.8447 28.6597 15.2807 28.7672 15.7354L29.3279 18.1068V21.0702C29.3279 21.1557 29.274 21.2314 29.1935 21.2604C23.94 23.1567 20.1881 28.1936 20.2061 34.1051C20.2291 41.6133 26.3056 47.6702 33.8138 47.6701C41.329 47.67 47.4211 41.5778 47.4211 34.0626C47.4212 28.2175 43.7357 23.2337 38.5619 21.307Z" fill="#C8EFFD"/>
<path d="M22.8377 36.0054C22.8207 30.4625 26.1183 25.6887 30.8603 23.5515C31.5252 23.2519 31.9594 22.5981 31.9594 21.8688V20.5828C31.9594 20.2003 31.915 19.819 31.8269 19.4467L31.8035 19.3474C31.4893 18.0187 32.4972 16.7449 33.8623 16.7449H38.7507L38.9894 15.7352C39.097 15.2804 38.752 14.8445 38.2847 14.8445H29.4719C29.0047 14.8445 28.6597 15.2804 28.7672 15.7352L29.3279 18.1066V21.07C29.3279 21.1555 29.274 21.2311 29.1935 21.2602C23.94 23.1564 20.1881 28.1933 20.2061 34.1049C20.2218 39.2196 23.047 43.6599 27.2199 45.9717C24.5347 43.4962 22.8497 39.9516 22.8377 36.0054Z" fill="#9BE5FB"/>
<path d="M28.6703 32.8886L30.8911 31.7894C33.3772 30.559 36.2836 30.506 38.8129 31.6451C40.1809 32.2613 41.6635 32.5303 43.1334 32.449L43.8523 32.3566C44.1924 32.3129 44.501 32.5617 44.5295 32.9034C44.554 33.1964 44.5664 33.4919 44.5664 33.7895C44.5664 39.4047 40.2138 44.0223 34.7053 44.4456H26.1787V33.0814L28.6703 32.8886Z" fill="#6EF5C2"/>
<path d="M36.185 44.2262C36.3475 43.0408 36.085 41.8264 35.4036 40.7656L29.941 32.2595L28.6703 32.8884L26.1787 33.0813V44.4455H34.7053C35.2091 44.4068 35.7031 44.3326 36.185 44.2262Z" fill="#05F2A7"/>
<path d="M36.0023 46.2434C37.0031 44.411 36.927 42.2683 35.7987 40.512L24.9996 23.6963C22.0567 26.2005 20.1933 29.9351 20.2061 34.1051C20.2291 41.6132 26.3055 47.6702 33.8138 47.6701C34.198 47.6701 34.5781 47.6533 34.9542 47.6221C35.3629 47.2279 35.7169 46.7658 36.0023 46.2434Z" fill="#9BE5FB"/>
<path d="M36.6733 44.1063C36.8009 42.8708 36.5076 41.6152 35.799 40.512L30.3647 32.05L28.6703 32.8886L26.1787 33.0815V44.4457H34.7053C35.3807 44.3937 36.0385 44.2784 36.6733 44.1063Z" fill="#13E29D"/>
<path d="M34.2179 41.5272C35.8176 44.0174 34.0291 47.2911 31.0701 47.2911H4.45544C1.49648 47.2911 -0.292046 44.0174 1.30767 41.5272L12.304 24.4041C12.5063 24.0892 12.6137 23.7229 12.6137 23.3487V13.7205H22.9118V23.3487C22.9118 23.723 23.0193 24.0892 23.2216 24.4041L34.2179 41.5272Z" fill="#DFF6FD"/>
<path d="M19.3815 15.0746V14.458H12.6137V23.3487C12.6137 23.7229 12.5062 24.0892 12.304 24.4041L1.30767 41.5271C-0.292046 44.0173 1.49648 47.2909 4.45544 47.2909H8.96969C7.50618 46.1783 6.94839 44.0345 8.07627 42.2787L19.0726 25.1556C19.2749 24.8408 19.3823 24.4744 19.3823 24.1003V15.0746H19.3815Z" fill="#C8EFFD"/>
<path d="M31.8469 43.0497C32.1043 43.4509 31.9785 43.8125 31.8808 43.9919C31.7821 44.1713 31.5464 44.4729 31.0701 44.4729H4.45541C3.97916 44.4729 3.74338 44.1713 3.64475 43.9919C3.54706 43.8125 3.42118 43.4509 3.67857 43.0497L11.9687 30.1424C12.1602 29.8443 12.4909 29.666 12.8451 29.6665C14.004 29.6678 15.1607 29.8492 16.2725 30.2107V30.2116C18.3963 30.9016 20.6647 30.9344 22.7869 30.3254C23.2296 30.1984 23.7034 30.37 23.9522 30.7575L31.8469 43.0497Z" fill="#FD9BA1"/>
<path d="M31.8469 43.0497C32.1043 43.4509 31.9785 43.8125 31.8808 43.9919C31.7821 44.1713 31.5464 44.4729 31.0701 44.4729H4.45541C3.97916 44.4729 3.74338 44.1713 3.64475 43.9919C3.54706 43.8125 3.42118 43.4509 3.67857 43.0497L11.9687 30.1424C12.1602 29.8443 12.4909 29.666 12.8451 29.6665C14.004 29.6678 15.1607 29.8492 16.2725 30.2107V30.2116C18.3963 30.9016 20.6647 30.9344 22.7869 30.3254C23.2296 30.1984 23.7034 30.37 23.9522 30.7575L31.8469 43.0497Z" fill="#FD9BA1"/>
<path d="M8.07633 42.2787L15.8992 30.0974C14.9028 29.8118 13.8751 29.6676 12.8452 29.6665C12.491 29.6661 12.1603 29.8443 11.9688 30.1424L3.67857 43.0497C3.42118 43.4509 3.54706 43.8125 3.64475 43.9919C3.74338 44.1713 3.97916 44.4729 4.45541 44.4729H7.48238C7.44575 43.7397 7.62685 42.9785 8.07633 42.2787Z" fill="#FD828A"/>
<path d="M31.8469 43.0499C32.1043 43.451 31.9785 43.8126 31.8808 43.992C31.7821 44.1715 31.5464 44.473 31.0701 44.473H4.45541C3.97916 44.473 3.74338 44.1715 3.64475 43.992C3.54706 43.8126 3.42118 43.451 3.67857 43.0499L6.11525 39.2568L10.2597 38.2742C12.2483 37.8026 14.3289 37.8881 16.2725 38.5203C17.395 38.8848 18.5579 39.0661 19.718 39.0661C21.3036 39.0661 22.8836 38.7288 24.349 38.0582L27.5889 36.5768L27.6602 36.5308L31.8469 43.0499Z" fill="#FD828A"/>
<path d="M8.07624 42.2787L10.7095 38.1782C10.5591 38.2073 10.4091 38.2386 10.2597 38.274L6.11525 39.2566L3.67857 43.0497C3.42118 43.4508 3.54706 43.8125 3.64475 43.9919C3.74338 44.1713 3.97916 44.4728 4.45541 44.4728H7.48238C7.44565 43.7397 7.62676 42.9784 8.07624 42.2787Z" fill="#FD6773"/>
<path d="M22.7047 15.0351H12.822C12.0827 15.0351 11.4834 14.4358 11.4834 13.6965C11.4834 12.9572 12.0827 12.3579 12.822 12.3579H22.7048C23.4441 12.3579 24.0434 12.9572 24.0434 13.6965C24.0433 14.4358 23.444 15.0351 22.7047 15.0351Z" fill="#9BE5FB"/>
<path d="M37.6445 39.1144C38.7738 39.1144 39.6894 38.1989 39.6894 37.0695C39.6894 35.9402 38.7738 35.0247 37.6445 35.0247C36.5151 35.0247 35.5996 35.9402 35.5996 37.0695C35.5996 38.1989 36.5151 39.1144 37.6445 39.1144Z" fill="#13E29D"/>
<path d="M15.0885 35.686C15.9355 35.686 16.6222 34.9993 16.6222 34.1522C16.6222 33.3051 15.9355 32.6184 15.0885 32.6184C14.2414 32.6184 13.5547 33.3051 13.5547 34.1522C13.5547 34.9993 14.2414 35.686 15.0885 35.686Z" fill="#FD828A"/>
<path d="M17.7627 9.23667C18.9984 9.23667 20.0001 8.23497 20.0001 6.99931C20.0001 5.76366 18.9984 4.76196 17.7627 4.76196C16.5271 4.76196 15.5254 5.76366 15.5254 6.99931C15.5254 8.23497 16.5271 9.23667 17.7627 9.23667Z" fill="#FD9BA1"/>
<path d="M33.8985 11.379C35.1341 11.379 36.1358 10.3773 36.1358 9.14165C36.1358 7.90599 35.1341 6.9043 33.8985 6.9043C32.6628 6.9043 31.6611 7.90599 31.6611 9.14165C31.6611 10.3773 32.6628 11.379 33.8985 11.379Z" fill="#9DF8D3"/>
<path d="M12.0734 3.73789C12.9111 3.73789 13.5902 3.05881 13.5902 2.22112C13.5902 1.38343 12.9111 0.704346 12.0734 0.704346C11.2357 0.704346 10.5566 1.38343 10.5566 2.22112C10.5566 3.05881 11.2357 3.73789 12.0734 3.73789Z" fill="#FD9BA1"/>
<path d="M12.2299 28.9771C12.0029 28.9885 11.7954 29.1088 11.6726 29.3L3.08639 42.6696C2.7548 43.186 2.73329 43.7911 3.0274 44.3297C3.32161 44.8684 3.84239 45.1774 4.45635 45.1774H31.0705C31.6844 45.1774 32.2052 44.8684 32.4994 44.3298C32.7936 43.7911 32.7721 43.1859 32.4405 42.6696L24.1151 29.7065C23.9372 29.4295 23.5913 29.3127 23.2816 29.4251C21.1046 30.2164 18.6931 30.2577 16.4914 29.5414C15.1146 29.0936 13.6812 28.9035 12.2299 28.9771ZM31.2629 43.6545C31.2054 43.7598 31.139 43.7685 31.0705 43.7685H4.45635C4.38787 43.7685 4.32155 43.7598 4.26406 43.6545C4.20657 43.549 4.23494 43.4886 4.27195 43.431L6.55467 39.8767L10.4224 38.96C12.2861 38.5182 14.2341 38.5978 16.0556 39.1904C18.8862 40.1111 21.9359 39.9366 24.6429 38.6987L27.4046 37.4358L31.255 43.4309C31.2919 43.4885 31.3203 43.549 31.2629 43.6545ZM23.2262 30.9297L26.6354 36.2381L24.0568 37.4172C21.6719 38.5077 18.9852 38.6615 16.4913 37.8503C14.4236 37.1777 12.2127 37.0874 10.0973 37.5888L7.65165 38.1685L12.6586 30.3722C13.8139 30.3526 14.9561 30.5235 16.0556 30.8812C18.375 31.6357 20.8997 31.6496 23.2262 30.9297Z" fill="black"/>
<path d="M39.1334 20.5832V18.1888L39.6752 15.8973C39.7763 15.4697 39.678 15.0268 39.4054 14.6822C39.1328 14.3375 38.7243 14.14 38.285 14.14H29.4722C29.0327 14.14 28.6244 14.3376 28.3517 14.6822C28.079 15.0267 27.9808 15.4696 28.0818 15.8973L28.6237 18.1888V20.5833C26.7796 21.318 25.1034 22.4391 23.7119 23.8639L23.6163 23.7152V15.5239C24.2863 15.1883 24.7475 14.4954 24.7475 13.6964C24.7475 12.5698 23.831 11.6533 22.7044 11.6533H12.8215C11.6949 11.6533 10.7784 12.5698 10.7784 13.6964C10.7784 14.4954 11.2396 15.1883 11.9097 15.5239V18.1563C11.9097 18.5454 12.225 18.8608 12.6142 18.8608C13.0033 18.8608 13.3187 18.5454 13.3187 18.1563V15.7394H22.2072V23.9218C22.2072 24.0568 22.246 24.189 22.3189 24.3026L23.0152 25.3866C23.0162 25.3883 23.0173 25.3899 23.0184 25.3916L24.9049 28.3289C25.0395 28.5385 25.2665 28.6528 25.4982 28.6528C25.6286 28.6528 25.7605 28.6166 25.8783 28.541C26.2057 28.3308 26.3006 27.8949 26.0904 27.5676L24.4956 25.0842C25.8946 23.5774 27.6369 22.4233 29.5654 21.7332C29.8456 21.633 30.0326 21.3675 30.0326 21.0699V18.1065C30.0326 18.0519 30.0263 17.9975 30.0137 17.9444L29.453 15.573C29.4519 15.5682 29.4509 15.5637 29.4567 15.5562C29.4625 15.5488 29.4672 15.5488 29.4721 15.5488H38.2849C38.2898 15.5488 38.2944 15.5488 38.3002 15.5562C38.306 15.5637 38.305 15.5682 38.3039 15.573L37.7432 17.9444C37.7306 17.9974 37.7243 18.0519 37.7243 18.1065V21.0699C37.7243 21.3675 37.9112 21.6329 38.1915 21.7332C43.2686 23.5499 46.6798 28.3948 46.6798 33.7893C46.6798 40.6985 41.1776 46.3459 34.3249 46.582C34.5715 46.314 34.7901 46.0134 34.9721 45.6804C35.0758 45.4905 35.164 45.2963 35.2385 45.0994C37.0152 44.8859 38.7278 44.2522 40.2184 43.2501C40.5413 43.0331 40.6272 42.5953 40.4101 42.2724C40.1929 41.9495 39.7553 41.8637 39.4324 42.0807C38.2538 42.8728 36.9169 43.4022 35.5236 43.6355C35.5417 42.7745 35.3041 41.9138 34.8112 41.1463L29.6887 33.1703L31.2036 32.4205C33.5094 31.2793 36.1776 31.2307 38.5236 32.2872C39.9752 32.9409 41.5827 33.2398 43.1722 33.1522C43.1892 33.1513 43.2061 33.1497 43.223 33.1475L43.8356 33.0688C43.853 33.3083 43.8618 33.5502 43.8618 33.7892C43.8618 36.1167 43.0393 38.3842 41.5462 40.1741C41.2969 40.473 41.337 40.9172 41.6358 41.1664C41.7676 41.2763 41.9275 41.3299 42.0868 41.3299C42.2884 41.3299 42.4887 41.2438 42.6281 41.0768C44.3324 39.0341 45.2709 36.4459 45.2709 33.7892C45.2709 33.4756 45.2576 33.1577 45.2315 32.8445C45.2021 32.4912 45.0269 32.1606 44.751 31.9376C44.4751 31.7144 44.1143 31.6125 43.7626 31.6575L43.0695 31.7466C41.7124 31.8176 40.3412 31.5604 39.1022 31.0024C36.3705 29.772 33.2637 29.8286 30.5786 31.1577L28.9227 31.9774L27.713 30.0938C27.5027 29.7663 27.0668 29.6713 26.7395 29.8817C26.4121 30.0919 26.3172 30.5277 26.5274 30.8551L33.6257 41.9076C34.2354 42.8568 34.2765 44.0148 33.7356 45.0049C33.3248 45.7568 32.651 46.2779 31.8564 46.4854C31.8516 46.4866 31.8467 46.4874 31.8419 46.4888C31.5946 46.5521 31.3362 46.5861 31.0701 46.5861H4.45589C3.32764 46.5861 2.33126 45.9949 1.79038 45.0049C1.2496 44.0148 1.29074 42.8569 1.90038 41.9077L13.207 24.3025C13.2799 24.1889 13.3187 24.0567 13.3187 23.9217V21.1584C13.3187 20.7694 13.0033 20.4539 12.6142 20.4539C12.225 20.4539 11.9097 20.7694 11.9097 21.1584V23.7149L0.714826 41.1465C-0.177654 42.5361 -0.23796 44.2311 0.55382 45.6805C1.3456 47.13 2.80423 47.9954 4.45589 47.9954H31.07C31.4139 47.9954 31.7487 47.9557 32.0717 47.8833C32.6718 47.9596 33.2788 47.9999 33.8785 47.9999C41.7142 47.9999 48.0889 41.6251 48.0889 33.7895C48.0889 27.9684 44.5105 22.7237 39.1334 20.5832ZM12.8215 14.3305C12.4719 14.3305 12.1874 14.046 12.1874 13.6964C12.1874 13.3468 12.4719 13.0623 12.8215 13.0623H22.7043C23.054 13.0623 23.3384 13.3468 23.3384 13.6964C23.3384 14.046 23.054 14.3305 22.7043 14.3305H12.8215Z" fill="black"/>
<path d="M34.8945 37.0697C34.8945 38.5857 36.1279 39.8191 37.6439 39.8191C39.1599 39.8191 40.3933 38.5857 40.3933 37.0697C40.3933 35.5537 39.1599 34.3203 37.6439 34.3203C36.1279 34.3203 34.8945 35.5537 34.8945 37.0697ZM38.9842 37.0697C38.9842 37.8088 38.383 38.4101 37.6438 38.4101C36.9047 38.4101 36.3035 37.8088 36.3035 37.0697C36.3035 36.3306 36.9047 35.7293 37.6438 35.7293C38.383 35.7293 38.9842 36.3306 38.9842 37.0697Z" fill="black"/>
<path d="M15.0879 36.3906C16.3221 36.3906 17.3262 35.3866 17.3262 34.1524C17.3262 32.9181 16.3221 31.9141 15.0879 31.9141C13.8537 31.9141 12.8496 32.9181 12.8496 34.1524C12.8496 35.3866 13.8538 36.3906 15.0879 36.3906ZM15.0879 33.3231C15.5452 33.3231 15.9172 33.6951 15.9172 34.1524C15.9172 34.6096 15.5452 34.9816 15.0879 34.9816C14.6306 34.9816 14.2586 34.6096 14.2586 34.1524C14.2586 33.6951 14.6306 33.3231 15.0879 33.3231Z" fill="black"/>
<path d="M17.7632 9.9411C19.3854 9.9411 20.705 8.62141 20.705 6.99924C20.705 5.37707 19.3853 4.05737 17.7632 4.05737C16.1412 4.05737 14.8213 5.37707 14.8213 6.99924C14.8213 8.62131 16.1411 9.9411 17.7632 9.9411ZM17.7632 5.46631C18.6084 5.46631 19.296 6.15392 19.296 6.99915C19.296 7.84437 18.6084 8.53198 17.7632 8.53198C16.918 8.53198 16.2304 7.84437 16.2304 6.99915C16.2303 6.15401 16.918 5.46631 17.7632 5.46631Z" fill="black"/>
<path d="M33.8978 12.0834C35.52 12.0834 36.8397 10.7637 36.8397 9.14157C36.8397 7.5194 35.5199 6.19971 33.8978 6.19971C32.2758 6.19971 30.9561 7.5194 30.9561 9.14157C30.9561 10.7637 32.2758 12.0834 33.8978 12.0834ZM33.8978 7.60874C34.7431 7.60874 35.4307 8.29634 35.4307 9.14157C35.4307 9.9868 34.7431 10.6744 33.8978 10.6744C33.0527 10.6744 32.3651 9.9868 32.3651 9.14157C32.3651 8.29634 33.0527 7.60874 33.8978 7.60874Z" fill="black"/>
<path d="M12.0728 4.44248C13.2976 4.44248 14.294 3.44602 14.294 2.22119C14.294 0.996372 13.2976 0 12.0728 0C10.8479 0 9.85156 0.996466 9.85156 2.22119C9.85147 3.44602 10.8479 4.44248 12.0728 4.44248ZM12.0728 1.40894C12.5207 1.40894 12.885 1.77331 12.885 2.2211C12.885 2.66898 12.5206 3.03336 12.0728 3.03336C11.6249 3.03336 11.2606 2.66898 11.2606 2.2211C11.2605 1.77331 11.6249 1.40894 12.0728 1.40894Z" fill="black"/>
</svg>
