<svg width="36" height="48" viewBox="0 0 36 48" fill="none" xmlns="http://www.w3.org/2000/svg">
<path d="M34.2509 2.79704L29.4251 1.44807C28.811 1.27641 28.174 1.6351 28.0023 2.24916L21.52 25.4382L28.5696 27.4088L35.0519 4.21979C35.2236 3.60572 34.865 2.96869 34.2509 2.79704Z" fill="#FADC60"/>
<path d="M8.26206 13.4985L5.58268 11.2486L4.06787 14.4018C4.06787 14.4018 4.08446 17.0243 4.52743 19.8241L7.84318 21.7403L10.0762 18.6291C9.3265 15.8953 8.26206 13.4985 8.26206 13.4985Z" fill="#D2D2D2"/>
<path d="M3.72949 25.9357V44.0289C3.72949 45.8338 5.19265 47.2969 6.99743 47.2969H26.7356C28.5404 47.2969 30.0035 45.8337 30.0035 44.0289V25.9357H3.72949Z" fill="#FA6F71"/>
<path d="M20.2673 8.08688H13.4648V25.935H20.2673V8.08688Z" fill="#57D0E6"/>
<path d="M18.756 0.703125H14.9763C14.1415 0.703125 13.4648 1.37981 13.4648 2.21447V6.29109L16.8661 8.08716L20.2673 6.29109V2.21447C20.2674 1.37981 19.5908 0.703125 18.756 0.703125Z" fill="#FA6F71"/>
<path d="M8.26236 13.4988C8.72698 12.462 9.03223 11.1993 9.03486 9.66993C9.0358 9.15027 9.03148 8.65687 8.93408 8.20471C8.40795 5.76187 5.79092 4.25081 4.3962 2.27249C4.04717 1.7774 3.32183 1.74946 2.94692 2.22515C1.78911 3.69431 -0.082422 7.11102 1.78714 11.2309C2.41911 12.6235 3.21702 13.6487 4.06723 14.4022L8.26236 13.4988Z" fill="#39484A"/>
<path d="M8.84837 26.4126C6.25769 26.9705 5.07109 23.2636 4.52734 19.8241L10.0761 18.6291C10.9955 21.9877 11.4391 25.8546 8.84837 26.4126Z" fill="#7CB777"/>
<path d="M30.0044 25.9359H3.72998V31.4184H30.0044V25.9359Z" fill="#E34B4C"/>
<path d="M30.0033 23.2656H3.72918C2.25449 23.2656 1.05908 24.4611 1.05908 25.9357C1.05908 27.4103 2.25458 28.6058 3.72918 28.6058H30.0032C31.4779 28.6058 32.6733 27.4103 32.6733 25.9357C32.6734 24.4611 31.478 23.2656 30.0033 23.2656Z" fill="#FA6F71"/>
<path d="M13.4653 8.08725V12.6958H20.2678V8.08725H13.4653Z" fill="#4DB8CC"/>
<path d="M20.2676 6.29109H13.4651C12.4731 6.29109 11.6689 7.09528 11.6689 8.08715C11.6689 9.07912 12.4731 9.88322 13.4651 9.88322H20.2676C21.2596 9.88322 22.0638 9.07903 22.0638 8.08715C22.0637 7.09528 21.2596 6.29109 20.2676 6.29109Z" fill="#D2D2D2"/>
<path d="M9.97705 36.0107C9.58864 36.0107 9.27393 36.3255 9.27393 36.7138V37.9603C9.27393 38.3486 9.58864 38.6634 9.97705 38.6634C10.3654 38.6634 10.6802 38.3486 10.6802 37.9603V36.7138C10.6802 36.3255 10.3653 36.0107 9.97705 36.0107Z" fill="black"/>
<path d="M24.4551 37.9603V36.7138C24.4551 36.3255 24.1403 36.0107 23.752 36.0107C23.3635 36.0107 23.0488 36.3255 23.0488 36.7138V37.9603C23.0488 38.3486 23.3635 38.6634 23.752 38.6634C24.1402 38.6634 24.4551 38.3486 24.4551 37.9603Z" fill="black"/>
<path d="M18.0349 37.4108C17.7507 37.7361 17.324 37.9225 16.8645 37.9225C16.4049 37.9225 15.9782 37.7361 15.694 37.4108C15.4384 37.1184 14.9942 37.0885 14.7018 37.3442C14.4094 37.5998 14.3796 38.0439 14.6352 38.3363C15.1865 38.9671 15.9991 39.3289 16.8645 39.3289C17.7299 39.3289 18.5424 38.9672 19.0937 38.3364C19.3493 38.044 19.3195 37.5999 19.0271 37.3443C18.7347 37.0886 18.2905 37.1185 18.0349 37.4108Z" fill="black"/>
<path d="M34.4383 2.11987L29.6126 0.770906C28.6261 0.495187 27.599 1.07344 27.3234 2.05997L21.5921 22.5625H20.9691V10.4851C22.0059 10.1806 22.7651 9.22125 22.7651 8.08725C22.7651 6.95325 22.0058 5.99391 20.9691 5.68941V2.21447C20.969 0.993375 19.9755 0 18.7544 0H14.9747C13.7536 0 12.7601 0.993375 12.7601 2.21447V5.68931C11.7234 5.99381 10.964 6.95325 10.964 8.08716C10.964 9.22106 11.7234 10.1805 12.7601 10.485V22.5623H11.4839C11.4292 21.4022 11.1843 20.0212 10.7524 18.4433C10.7524 18.4433 10.7524 18.4433 10.7524 18.4432V18.4431C10.144 16.2244 9.32983 14.2189 9.02496 13.4974C9.49437 12.3416 9.73399 11.0564 9.73633 9.67116C9.73737 9.08869 9.7293 8.56509 9.6198 8.05659C9.23824 6.28453 7.95152 5.01328 6.70718 3.78394C6.05205 3.13669 5.43321 2.52525 4.96933 1.86722C4.67177 1.44525 4.20593 1.19531 3.69124 1.18163C3.18133 1.16813 2.70846 1.38975 2.39308 1.78987C1.5499 2.85975 -1.03198 6.72347 1.14527 11.5213C1.71771 12.7828 2.46508 13.8555 3.36865 14.7156C3.38815 15.4996 3.47262 17.6681 3.83112 19.9338V19.9339C3.98421 20.9024 4.17096 21.781 4.38733 22.5623H3.72762C1.86762 22.5623 0.354397 24.0756 0.354397 25.9356C0.354397 27.5545 1.50087 28.9102 3.02449 29.2345V44.0288C3.02449 46.2184 4.80593 47.9998 6.99555 47.9998H21.2545C21.6428 47.9998 21.9576 47.685 21.9576 47.2967C21.9576 46.9084 21.6428 46.5936 21.2545 46.5936H6.99555C5.58133 46.5936 4.43074 45.443 4.43074 44.0288V29.309H8.22321C8.61152 29.309 8.92633 28.9942 8.92633 28.6058C8.92633 28.2175 8.61152 27.9027 8.22321 27.9027H3.72762C2.64302 27.9027 1.76065 27.0203 1.76065 25.9358C1.76065 24.8512 2.64302 23.9688 3.72762 23.9688H30.0016C31.0862 23.9688 31.9686 24.8512 31.9686 25.9358C31.9686 27.0203 31.0861 27.9027 30.0016 27.9027H11.0357C10.6474 27.9027 10.3326 28.2175 10.3326 28.6058C10.3326 28.9942 10.6474 29.309 11.0357 29.309H29.2985V44.0289C29.2985 45.4432 28.1479 46.5938 26.7337 46.5938H24.067C23.6786 46.5938 23.3638 46.9086 23.3638 47.2969C23.3638 47.6852 23.6786 48 24.067 48H26.7337C28.9233 48 30.7047 46.2186 30.7047 44.0289V29.2347C32.2284 28.9103 33.3748 27.5546 33.3748 25.9358C33.3748 24.2925 32.1936 22.9207 30.6357 22.6231L35.7273 4.40916C36.0031 3.42253 35.4249 2.39559 34.4383 2.11987ZM14.9748 1.40625H18.7545C19.2002 1.40625 19.5628 1.76878 19.5628 2.21447V5.58797H14.1666V2.21447C14.1665 1.76878 14.5291 1.40625 14.9748 1.40625ZM12.3703 8.08725C12.3703 7.48472 12.8605 6.9945 13.4629 6.99431C13.463 6.99431 13.4632 6.99431 13.4634 6.99431H20.2659C20.266 6.99431 20.2661 6.99431 20.2663 6.99431C20.8688 6.99459 21.3588 7.48472 21.3588 8.08725C21.3588 8.68997 20.8686 9.18028 20.2659 9.18028H13.4634C12.8606 9.18019 12.3703 8.68987 12.3703 8.08725ZM5.11268 18.9784C4.88749 17.301 4.80958 15.7632 4.78277 14.967L7.83958 14.3087C8.14296 15.0451 8.70499 16.4783 9.1909 18.1L5.11268 18.9784ZM2.4258 10.9403C0.627209 6.97669 2.57618 3.8295 3.49755 2.66034C3.54471 2.60053 3.60433 2.58731 3.64793 2.58731C3.6499 2.58731 3.65187 2.58731 3.65374 2.58741C3.69283 2.58844 3.76643 2.60156 3.81996 2.67759C4.35593 3.43781 5.04874 4.12238 5.71887 4.78434C6.86712 5.91881 7.95171 6.99038 8.24515 8.35275C8.3253 8.72541 8.33102 9.15103 8.33008 9.66872C8.32812 10.8398 8.13462 11.921 7.75465 12.8885L4.27558 13.6377C3.53112 12.9125 2.90974 12.0067 2.4258 10.9403ZM5.85021 22.5624C5.65343 21.9167 5.4799 21.1828 5.33149 20.3698L9.5643 19.4582C9.85821 20.6403 10.0297 21.6794 10.0767 22.5624H5.85021ZM14.1665 22.5624V10.5864H19.5627V22.5624H14.1665ZM23.0523 22.5624L28.6777 2.43844C28.7446 2.19872 28.9941 2.05819 29.234 2.12522L34.0598 3.47419C34.2995 3.54122 34.44 3.79078 34.373 4.03059L34.0876 5.05153L31.5725 4.34841C31.1987 4.24397 30.8106 4.46231 30.7061 4.83628C30.6015 5.21025 30.82 5.59819 31.1939 5.70272L33.7091 6.40584L33.3688 7.62309L30.8536 6.91997C30.4798 6.81544 30.0917 7.03378 29.9872 7.40784C29.8826 7.78181 30.1011 8.16975 30.4751 8.27428L32.9902 8.97741L32.6499 10.1947L30.1347 9.49153C29.7609 9.387 29.3728 9.60534 29.2682 9.97941C29.1637 10.3534 29.3821 10.7413 29.7561 10.8458L32.2713 11.549L31.9311 12.7661L29.4159 12.063C29.0421 11.9584 28.654 12.1769 28.5494 12.5509C28.4449 12.9248 28.6633 13.3128 29.0373 13.4173L31.5524 14.1204L31.2122 15.3377L28.6971 14.6346C28.3232 14.5301 27.9352 14.7485 27.8306 15.1224C27.7261 15.4964 27.9446 15.8843 28.3185 15.9889L30.8337 16.692L30.4935 17.9092L27.9783 17.206C27.6046 17.1015 27.2164 17.3199 27.1119 17.6939C27.0073 18.0679 27.2258 18.4558 27.5997 18.5603L30.1149 19.2635L29.7746 20.4807L27.2595 19.7776C26.8856 19.6731 26.4976 19.8914 26.393 20.2655C26.2885 20.6394 26.5069 21.0274 26.8809 21.1319L29.3961 21.835L29.1928 22.5623H23.0523V22.5624Z" fill="black"/>
</svg>
