<svg width="49" height="48" viewBox="0 0 49 48" fill="none" xmlns="http://www.w3.org/2000/svg">
<path d="M45.4222 39.5145H3.6138C2.29254 39.5145 1.22168 38.4436 1.22168 37.1227V3.09528C1.22168 1.77403 2.29254 0.703163 3.6138 0.703163H45.4222C46.743 0.703163 47.8139 1.77403 47.8139 3.09528V37.1227C47.8139 38.4436 46.743 39.5145 45.4222 39.5145Z" fill="#FFD86E"/>
<path d="M47.8141 3.09527V37.1227C47.8141 38.4436 46.7432 39.5145 45.4224 39.5145H42.5005C43.8217 39.5145 44.8922 38.4436 44.8922 37.1227V3.09527C44.8922 1.77438 43.8217 0.703522 42.5005 0.703522H45.4224C46.7432 0.703522 47.8141 1.77438 47.8141 3.09527Z" fill="#FFB509"/>
<path d="M47.8139 33.7518H1.22168V37.1227C1.22168 38.4436 2.29254 39.5145 3.6138 39.5145H45.4222C46.743 39.5145 47.8139 38.4436 47.8139 37.1227V33.7518Z" fill="#838383"/>
<path d="M47.8141 33.7518V37.1227C47.8141 38.4436 46.7432 39.5145 45.4224 39.5145H42.5005C43.8217 39.5145 44.8922 38.4436 44.8922 37.1227V33.7518H47.8141Z" fill="#5A5A5A"/>
<path d="M47.8676 8.86276H1.27393V3.09491C1.27393 1.77403 2.34479 0.703163 3.66568 0.703163H45.4759C46.7968 0.703163 47.8676 1.77403 47.8676 3.09491V8.86276Z" fill="#ACACAC"/>
<path d="M47.8676 3.09454V8.86312H44.8922V3.09454C44.8922 1.77438 43.8217 0.703522 42.5005 0.703522H45.4755C46.7968 0.703522 47.8676 1.77438 47.8676 3.09454Z" fill="#9C9C9C"/>
<path d="M18.001 39.5145H31.0346V43.4431H18.001V39.5145Z" fill="#5A5A5A"/>
<path d="M35.2578 47.2969H13.7775C13.5187 47.2969 13.3086 47.0868 13.3086 46.828V45.3087C13.3086 44.2786 14.1441 43.4431 15.1743 43.4431H33.8614C34.8915 43.4431 35.7267 44.2786 35.7267 45.3087V46.828C35.7267 47.0872 35.517 47.2969 35.2578 47.2969Z" fill="#838383"/>
<path d="M35.727 45.3084V46.8283C35.727 47.0872 35.5169 47.2972 35.2581 47.2972H33.6032V45.3084C33.6032 44.2789 32.7677 43.4434 31.7383 43.4434H33.862C34.8918 43.4434 35.727 44.2786 35.727 45.3084Z" fill="#5A5A5A"/>
<path d="M28.2495 25.8198H43.4777V28.7062H28.2495V25.8198Z" fill="#64DCFC"/>
<path d="M28.2495 33.4838H43.4777V36.3705H28.2495V33.4838Z" fill="#64DCFC"/>
<path d="M41.6772 25.8198H43.4777V28.7062H41.6772V25.8198Z" fill="#00D1FC"/>
<path d="M41.6772 33.4838H43.4777V36.3705H41.6772V33.4838Z" fill="#00D1FC"/>
<path d="M44.7387 25.8199H26.9887C26.6132 25.8199 26.3086 25.5156 26.3086 25.1402V21.7223C26.3086 21.3469 26.6132 21.0422 26.9887 21.0422H44.7387C45.1141 21.0422 45.4188 21.3469 45.4188 21.7223V25.1402C45.4188 25.5156 45.1141 25.8199 44.7387 25.8199Z" fill="#0396FD"/>
<path d="M44.7387 33.4838H26.9887C26.6132 33.4838 26.3086 33.1795 26.3086 32.8041V29.3862C26.3086 29.0108 26.6132 28.7061 26.9887 28.7061H44.7387C45.1141 28.7061 45.4188 29.0108 45.4188 29.3862V32.8041C45.4188 33.1795 45.1141 33.4838 44.7387 33.4838Z" fill="#0396FD"/>
<path d="M44.7387 41.1477H26.9887C26.6132 41.1477 26.3086 40.8434 26.3086 40.468V37.0501C26.3086 36.6744 26.6132 36.3701 26.9887 36.3701H44.7387C45.1141 36.3701 45.4188 36.6744 45.4188 37.0501V40.468C45.4188 40.8434 45.1141 41.1477 44.7387 41.1477Z" fill="#0396FD"/>
<path d="M45.4185 21.7223V25.1402C45.4185 25.5152 45.1149 25.8198 44.7388 25.8198H43.1616C43.5378 25.8198 43.8413 25.5152 43.8413 25.1402V21.7223C43.8413 21.3472 43.5378 21.0426 43.1616 21.0426H44.7388C45.1149 21.0426 45.4185 21.3472 45.4185 21.7223Z" fill="#0077F0"/>
<path d="M45.4185 29.3858V32.8037C45.4185 33.1795 45.1149 33.4834 44.7388 33.4834H43.1616C43.5378 33.4834 43.8413 33.1795 43.8413 32.8037V29.3858C43.8413 29.0108 43.5378 28.7062 43.1616 28.7062H44.7388C45.1149 28.7062 45.4185 29.0108 45.4185 29.3858Z" fill="#0077F0"/>
<path d="M45.4185 37.0505V40.468C45.4185 40.8431 45.1149 41.1481 44.7388 41.1481H43.1616C43.5378 41.1481 43.8413 40.8431 43.8413 40.468V37.0505C43.8413 36.6744 43.5378 36.3705 43.1616 36.3705H44.7388C45.1149 36.3705 45.4185 36.6744 45.4185 37.0505Z" fill="#0077F0"/>
<path d="M7.0652 4.76298C7.0652 5.51453 6.45627 6.12383 5.70472 6.12383C4.95317 6.12383 4.34424 5.51453 4.34424 4.76298C4.34424 4.0118 4.95317 3.4025 5.70472 3.4025C6.45627 3.4025 7.0652 4.0118 7.0652 4.76298Z" fill="#FF6B81"/>
<path d="M12.32 4.76298C12.32 5.51453 11.7107 6.12383 10.9595 6.12383C10.2079 6.12383 9.59863 5.51453 9.59863 4.76298C9.59863 4.0118 10.2079 3.4025 10.9595 3.4025C11.7107 3.4025 12.32 4.0118 12.32 4.76298Z" fill="#FFD86E"/>
<path d="M17.5745 4.76298C17.5745 5.51453 16.9655 6.12383 16.214 6.12383C15.4628 6.12383 14.8535 5.51453 14.8535 4.76298C14.8535 4.0118 15.4628 3.4025 16.214 3.4025C16.9655 3.4025 17.5745 4.0118 17.5745 4.76298Z" fill="#80E0DC"/>
<path d="M7.06487 4.7637C7.06487 5.51452 6.4563 6.12309 5.70512 6.12309C5.34144 6.12309 5.0104 5.98048 4.7666 5.74731C5.50275 5.73118 6.09519 5.12921 6.09519 4.38866C6.09519 4.00043 5.93315 3.65142 5.67322 3.40395C5.68386 3.40285 5.69485 3.40285 5.70512 3.40285C6.4563 3.40285 7.06487 4.01142 7.06487 4.7637Z" fill="#FF435F"/>
<path d="M12.3195 4.7637C12.3195 5.51452 11.7109 6.12309 10.959 6.12309C10.5953 6.12309 10.265 5.98048 10.0205 5.74731C10.7574 5.73118 11.3502 5.12921 11.3502 4.38866C11.3502 4.00043 11.1878 3.65142 10.9282 3.40395C10.9385 3.40285 10.9488 3.40285 10.959 3.40285C11.7109 3.40285 12.3195 4.01142 12.3195 4.7637Z" fill="#FFB509"/>
<path d="M17.5748 4.7637C17.5748 5.51452 16.9651 6.12309 16.2139 6.12309C15.8502 6.12309 15.5203 5.98048 15.2754 5.74731C16.0126 5.73118 16.604 5.12921 16.604 4.38866C16.604 4.00043 16.4419 3.65142 16.182 3.40395C16.1926 3.40285 16.2036 3.40285 16.2139 3.40285C16.9651 3.40285 17.5748 4.01142 17.5748 4.7637Z" fill="#00A8B0"/>
<path d="M6.05193 17.5077C6.18904 17.6449 6.36904 17.7138 6.54905 17.7138C6.72905 17.7138 6.90906 17.6452 7.04654 17.5077C7.32113 17.2332 7.32113 16.7877 7.04654 16.5131L5.33888 14.8055L7.04654 13.0982C7.32113 12.8232 7.32113 12.3782 7.04654 12.1036C6.77195 11.829 6.32652 11.829 6.05193 12.1036L3.84715 14.3084C3.71517 14.4403 3.64111 14.6192 3.64111 14.8055C3.64111 14.9921 3.71517 15.171 3.84715 15.303L6.05193 17.5077Z" fill="black"/>
<path d="M13.0307 14.8055L11.3231 16.5131C11.0485 16.7877 11.0485 17.2332 11.3235 17.5077C11.4606 17.6449 11.6406 17.7138 11.8206 17.7138C12.0006 17.7138 12.1806 17.6449 12.3177 17.5077L14.5228 15.3026C14.7974 15.028 14.7974 14.5826 14.5228 14.3084L12.3177 12.1032C12.0431 11.8286 11.598 11.8286 11.3235 12.1032C11.0485 12.3782 11.0485 12.8232 11.3235 13.0978L13.0307 14.8055Z" fill="black"/>
<path d="M8.13666 17.665C8.22098 17.698 8.30823 17.7138 8.39365 17.7138C8.67447 17.7138 8.93953 17.5444 9.04841 17.2676L10.7806 12.8577C10.9229 12.4962 10.7447 12.0882 10.3832 11.9459C10.0221 11.8041 9.61372 11.9819 9.47185 12.3433L7.73926 16.7533C7.59738 17.1147 7.77518 17.5231 8.13666 17.665Z" fill="black"/>
<path d="M4.74271 21.8396H9.48038C9.86862 21.8396 10.1835 21.5247 10.1835 21.1361C10.1835 20.7478 9.86862 20.4329 9.48038 20.4329H4.74271C4.3541 20.4329 4.03955 20.7478 4.03955 21.1361C4.03955 21.5247 4.3541 21.8396 4.74271 21.8396Z" fill="black"/>
<path d="M20.3919 20.4329H12.0625C11.6743 20.4329 11.3594 20.7478 11.3594 21.1361C11.3594 21.5247 11.6743 21.8396 12.0625 21.8396H20.3919C20.7805 21.8396 21.0954 21.5247 21.0954 21.1361C21.0954 20.7478 20.7805 20.4329 20.3919 20.4329Z" fill="black"/>
<path d="M4.74271 24.8058H6.76088C7.14912 24.8058 7.46404 24.4909 7.46404 24.1023C7.46404 23.714 7.14912 23.3991 6.76088 23.3991H4.74271C4.3541 23.3991 4.03955 23.714 4.03955 24.1023C4.03955 24.4909 4.3541 24.8058 4.74271 24.8058Z" fill="black"/>
<path d="M17.8194 23.3991C17.4308 23.3991 17.1162 23.714 17.1162 24.1023C17.1162 24.4909 17.4308 24.8058 17.8194 24.8058H19.0482C19.4368 24.8058 19.7518 24.4909 19.7518 24.1023C19.7518 23.714 19.4368 23.3991 19.0482 23.3991H17.8194Z" fill="black"/>
<path d="M15.9683 24.1023C15.9683 23.714 15.6534 23.3991 15.2651 23.3991H9.22855C8.83994 23.3991 8.52539 23.714 8.52539 24.1023C8.52539 24.4909 8.83994 24.8058 9.22855 24.8058H15.2651C15.6534 24.8058 15.9683 24.4909 15.9683 24.1023Z" fill="black"/>
<path d="M20.5747 24.1023C20.5747 24.4909 20.8896 24.8058 21.2779 24.8058H23.5798C23.9684 24.8058 24.2833 24.4909 24.2833 24.1023C24.2833 23.714 23.9684 23.3991 23.5798 23.3991H21.2779C20.8896 23.3991 20.5747 23.714 20.5747 24.1023Z" fill="black"/>
<path d="M16.745 15.3697H19.1731C19.5617 15.3697 19.8766 15.0548 19.8766 14.6662C19.8766 14.2779 19.5617 13.963 19.1731 13.963H16.745C16.3564 13.963 16.0415 14.2779 16.0415 14.6662C16.0415 15.0548 16.3564 15.3697 16.745 15.3697Z" fill="black"/>
<path d="M21.8925 15.3697H36.7075C37.0961 15.3697 37.4106 15.0548 37.4106 14.6662C37.4106 14.2779 37.0961 13.963 36.7075 13.963H21.8925C21.5039 13.963 21.189 14.2779 21.189 14.6662C21.189 15.0548 21.5039 15.3697 21.8925 15.3697Z" fill="black"/>
<path d="M34.4575 17.0572H28.4561C28.0678 17.0572 27.7529 17.3721 27.7529 17.7607C27.7529 18.1489 28.0678 18.4639 28.4561 18.4639H34.4575C34.8457 18.4639 35.1606 18.1489 35.1606 17.7607C35.1606 17.3721 34.8457 17.0572 34.4575 17.0572Z" fill="black"/>
<path d="M26.2055 17.0572H24.1426C23.754 17.0572 23.4395 17.3721 23.4395 17.7607C23.4395 18.1489 23.754 18.4639 24.1426 18.4639H26.2055C26.5941 18.4639 26.9087 18.1489 26.9087 17.7607C26.9087 17.3721 26.5941 17.0572 26.2055 17.0572Z" fill="black"/>
<path d="M16.745 18.4639H21.7987C22.187 18.4639 22.5019 18.1489 22.5019 17.7607C22.5019 17.3721 22.187 17.0572 21.7987 17.0572H16.745C16.3564 17.0572 16.0415 17.3721 16.0415 17.7607C16.0415 18.1489 16.3564 18.4639 16.745 18.4639Z" fill="black"/>
<path d="M15.2738 26.3404H10.5365C10.1479 26.3404 9.83301 26.6553 9.83301 27.0436C9.83301 27.4318 10.1479 27.7467 10.5365 27.7467H15.2738C15.6621 27.7467 15.977 27.4318 15.977 27.0436C15.977 26.6553 15.6621 26.3404 15.2738 26.3404Z" fill="black"/>
<path d="M8.38239 26.3404H4.74271C4.3541 26.3404 4.03955 26.6553 4.03955 27.0436C4.03955 27.4318 4.3541 27.7467 4.74271 27.7467H8.38239C8.771 27.7467 9.08555 27.4318 9.08555 27.0436C9.08555 26.6553 8.771 26.3404 8.38239 26.3404Z" fill="black"/>
<path d="M23.8616 26.3404H17.6729C17.2843 26.3404 16.9697 26.6553 16.9697 27.0436C16.9697 27.4318 17.2843 27.7467 17.6729 27.7467H23.8616C24.2498 27.7467 24.5647 27.4318 24.5647 27.0436C24.5647 26.6553 24.2498 26.3404 23.8616 26.3404Z" fill="black"/>
<path d="M32.2309 22.7279H28.8467C28.4585 22.7279 28.1436 23.0428 28.1436 23.431C28.1436 23.8196 28.4585 24.1345 28.8467 24.1345H32.2309C32.6195 24.1345 32.934 23.8196 32.934 23.431C32.934 23.0428 32.6195 22.7279 32.2309 22.7279Z" fill="black"/>
<path d="M38.1031 24.1345H42.8803C43.2689 24.1345 43.5838 23.8196 43.5838 23.431C43.5838 23.0428 43.2689 22.7279 42.8803 22.7279H38.1031C37.7145 22.7279 37.3999 23.0428 37.3999 23.431C37.3999 23.8196 37.7148 24.1345 38.1031 24.1345Z" fill="black"/>
<path d="M35.7142 22.7279H34.6195C34.2309 22.7279 33.916 23.0428 33.916 23.431C33.916 23.8196 34.2309 24.1345 34.6195 24.1345H35.7142C36.1028 24.1345 36.4174 23.8196 36.4174 23.431C36.4174 23.0428 36.1028 22.7279 35.7142 22.7279Z" fill="black"/>
<path d="M28.8467 31.7981H32.2309C32.6195 31.7981 32.934 31.4836 32.934 31.095C32.934 30.7067 32.6195 30.3918 32.2309 30.3918H28.8467C28.4585 30.3918 28.1436 30.7067 28.1436 31.095C28.1436 31.4836 28.4585 31.7981 28.8467 31.7981Z" fill="black"/>
<path d="M38.1031 31.7981H42.8803C43.2689 31.7981 43.5838 31.4836 43.5838 31.095C43.5838 30.7067 43.2689 30.3918 42.8803 30.3918H38.1031C37.7145 30.3918 37.3999 30.7067 37.3999 31.095C37.3999 31.4836 37.7148 31.7981 38.1031 31.7981Z" fill="black"/>
<path d="M34.6197 31.7981H35.7144C36.103 31.7981 36.4179 31.4836 36.4179 31.095C36.4179 30.7067 36.103 30.3918 35.7144 30.3918H34.6197C34.2311 30.3918 33.9165 30.7067 33.9165 31.095C33.9165 31.4836 34.2311 31.7981 34.6197 31.7981Z" fill="black"/>
<path d="M32.2309 38.0558H28.8467C28.4585 38.0558 28.1436 38.3707 28.1436 38.7589C28.1436 39.1471 28.4585 39.4621 28.8467 39.4621H32.2309C32.6195 39.4621 32.934 39.1471 32.934 38.7589C32.934 38.3707 32.6195 38.0558 32.2309 38.0558Z" fill="black"/>
<path d="M42.8803 38.0558H38.1031C37.7145 38.0558 37.3999 38.3707 37.3999 38.7589C37.3999 39.1471 37.7145 39.4621 38.1031 39.4621H42.8803C43.2689 39.4621 43.5838 39.1471 43.5838 38.7589C43.5838 38.3707 43.2689 38.0558 42.8803 38.0558Z" fill="black"/>
<path d="M35.7142 38.0558H34.6195C34.2309 38.0558 33.916 38.3707 33.916 38.7589C33.916 39.1471 34.2309 39.4621 34.6195 39.4621H35.7142C36.1028 39.4621 36.4174 39.1471 36.4174 38.7589C36.4174 38.3707 36.1028 38.0558 35.7142 38.0558Z" fill="black"/>
<path d="M45.4757 0H3.61383C1.90727 0 0.518555 1.38834 0.518555 3.09527V37.1227C0.518555 38.8293 1.90727 40.2176 3.61383 40.2176H6.26037C6.64861 40.2176 6.96353 39.9031 6.96353 39.5145C6.96353 39.1263 6.64861 38.8113 6.26037 38.8113H3.61383C2.68264 38.8113 1.92523 38.0539 1.92523 37.1227V34.4549H27.5464V35.6669H26.9888C26.2258 35.6669 25.6055 36.2872 25.6055 37.0501V38.8113H10.5361C10.1479 38.8113 9.83297 39.1263 9.83297 39.5145C9.83297 39.9031 10.1479 40.2176 10.5361 40.2176H17.2978V42.7399H15.1744C13.7579 42.7399 12.6056 43.8925 12.6056 45.3087V46.828C12.6056 47.4743 13.1313 48 13.7777 48H35.258C35.9043 48 36.43 47.4743 36.43 46.828V45.3087C36.43 43.8925 35.2778 42.7399 33.8612 42.7399H31.7378V41.8509H44.7388C45.5014 41.8509 46.1217 41.2306 46.1217 40.4677V40.1366C47.4924 39.8184 48.5171 38.5884 48.5171 37.1227L48.5702 3.09491C48.5706 1.38834 47.1823 0 45.4757 0ZM27.0122 32.7806V29.4097H44.7154V32.7806H27.0122ZM28.9527 28.003V26.5234H42.7745V28.003H28.9527ZM42.7745 34.1869V35.6669H28.9527V34.1869H42.7745ZM18.7042 40.2176H25.6055V40.468C25.6055 41.2306 26.2258 41.8509 26.9888 41.8509H30.3315V42.7399H18.7042V40.2176ZM33.8616 44.1466C34.5024 44.1466 35.0237 44.6679 35.0237 45.3087V46.5937H14.0119V45.3087C14.0119 44.6679 14.5336 44.1466 15.1744 44.1466H33.8616ZM44.7154 40.4442H27.0122V37.0736H44.7154V40.4442ZM47.1108 37.1227C47.1108 37.8039 46.7046 38.3908 46.122 38.6574V37.0498C46.122 36.2872 45.5014 35.6669 44.7388 35.6669H44.1812V34.4549H47.1108V37.1227ZM47.1108 33.0486H46.0989C46.1132 32.9691 46.122 29.3862 46.122 29.3862C46.122 28.6233 45.5014 28.003 44.7388 28.003H44.1812V26.5234H44.7388C45.5014 26.5234 46.122 25.9027 46.122 25.1402V21.7223C46.122 20.9597 45.5014 20.3391 44.7388 20.3391H40.7666C40.378 20.3391 40.0635 20.654 40.0635 21.0426C40.0635 21.4308 40.378 21.7457 40.7666 21.7457H44.7154V25.1167H27.0122V21.7457H36.3908C36.7794 21.7457 37.0939 21.4308 37.0939 21.0426C37.0939 20.654 36.7794 20.3391 36.3908 20.3391H26.9888C26.2258 20.3391 25.6055 20.9597 25.6055 21.7223V25.1402C25.6055 25.9027 26.2258 26.5234 26.9888 26.5234H27.5464V28.003H26.9888C26.2258 28.003 25.6055 28.6237 25.6055 29.3862C25.6055 29.3862 25.6143 32.9691 25.6286 33.0486H1.92523V9.56627H47.1108V33.0486ZM47.1108 8.1596H1.97692V3.09491C1.97692 2.16409 2.73433 1.40668 3.66552 1.40668H45.4222C46.3534 1.40668 47.1108 2.16409 47.1108 3.09527V8.1596Z" fill="black"/>
<path d="M5.70475 2.69934C4.5668 2.69934 3.64111 3.62503 3.64111 4.76298C3.64111 5.90093 4.5668 6.82698 5.70475 6.82698C6.8427 6.82698 7.76875 5.90093 7.76875 4.76298C7.76875 3.62503 6.8427 2.69934 5.70475 2.69934ZM5.70475 5.42031C5.34254 5.42031 5.04742 5.12555 5.04742 4.76298C5.04742 4.40077 5.34254 4.10565 5.70475 4.10565C6.06733 4.10565 6.36208 4.40077 6.36208 4.76298C6.36208 5.12555 6.06733 5.42031 5.70475 5.42031Z" fill="black"/>
<path d="M10.9595 2.69934C9.82156 2.69934 8.89551 3.62503 8.89551 4.76298C8.89551 5.90093 9.82156 6.82698 10.9595 6.82698C12.0975 6.82698 13.0231 5.90093 13.0231 4.76298C13.0231 3.62503 12.0971 2.69934 10.9595 2.69934ZM10.9595 5.42031C10.5969 5.42031 10.3022 5.12555 10.3022 4.76298C10.3022 4.40077 10.5969 4.10565 10.9595 4.10565C11.3217 4.10565 11.6168 4.40077 11.6168 4.76298C11.6168 5.12555 11.3217 5.42031 10.9595 5.42031Z" fill="black"/>
<path d="M16.214 2.69934C15.0761 2.69934 14.1504 3.62503 14.1504 4.76298C14.1504 5.90093 15.0761 6.82698 16.214 6.82698C17.352 6.82698 18.278 5.90093 18.278 4.76298C18.278 3.62503 17.352 2.69934 16.214 2.69934ZM16.214 5.42031C15.8518 5.42031 15.5567 5.12555 15.5567 4.76298C15.5567 4.40077 15.8518 4.10565 16.214 4.10565C16.5766 4.10565 16.8714 4.40077 16.8714 4.76298C16.8714 5.12555 16.5766 5.42031 16.214 5.42031Z" fill="black"/>
</svg>
