<svg width="52" height="48" viewBox="0 0 52 48" fill="none" xmlns="http://www.w3.org/2000/svg">
<path d="M24.179 34.292C25.9187 36.0316 28.2314 36.9895 30.6915 36.9895C33.1516 36.9895 35.4638 36.0315 37.2017 34.292C38.9412 32.5524 39.8992 30.24 39.8992 27.7807C39.8992 25.3215 38.9412 23.009 37.2019 21.2698C35.4638 19.53 33.1517 18.572 30.6915 18.572C28.2313 18.572 25.9188 19.53 24.179 21.2695C20.5888 24.8599 20.5888 30.7018 24.179 34.2921V34.292ZM25.3663 22.4566C26.7888 21.0342 28.6799 20.2507 30.6914 20.2507C32.7029 20.2507 34.5932 21.034 36.0143 22.4566C37.4368 23.8791 38.2202 25.7699 38.2202 27.7806C38.2202 29.7914 37.4367 31.6822 36.0141 33.1049C34.5932 34.5272 32.7028 35.3104 30.6914 35.3104C28.68 35.3104 26.7888 34.5271 25.3663 33.1046C22.4311 30.1689 22.4307 25.3921 25.3663 22.4566ZM51.0436 34.2664V1.42858C51.0436 0.96498 50.6677 0.589104 50.2041 0.589104H31.236C31.0133 0.589104 30.7999 0.677564 30.6424 0.834966L25.4015 6.07593C25.2441 6.23334 25.1557 6.44688 25.1557 6.66955V16.9326C24.0463 17.4977 23.0059 18.2427 22.0791 19.1694C19.7785 21.47 18.5115 24.5285 18.5115 27.7817C18.5115 28.2612 18.5399 28.7365 18.5941 29.2058V46.321H16.8762V24.0343C16.8762 23.5707 16.5003 23.1948 16.0367 23.1948H11.1022C10.6386 23.1948 10.2627 23.5707 10.2627 24.0343V46.321H8.54786V30.697C8.54786 30.2334 8.17198 29.8575 7.70838 29.8575H2.77078C2.30717 29.8575 1.9313 30.2334 1.9313 30.697V46.321H0.884888C0.421287 46.321 0.0454102 46.6969 0.0454102 47.1605C0.0454102 47.6241 0.421287 48 0.884888 48H34.5883C35.0519 48 35.4277 47.6241 35.4277 47.1605C35.4277 46.6969 35.0519 46.321 34.5883 46.321H33.539V39.6181C34.772 39.3237 35.9676 38.835 37.0767 38.1524L38.787 40.6348L38.7874 40.6345C38.8162 40.6763 38.8484 40.7158 38.8847 40.7522L45.1221 46.9896C45.7954 47.6628 46.6807 47.9996 47.5662 47.9996C48.4437 47.9996 49.3217 47.6689 49.9944 47.0075C50.6434 46.423 51.0153 45.6053 51.0422 44.7019C51.0712 43.7331 50.696 42.7856 50.0126 42.1021L43.7752 35.8648C43.7385 35.8281 43.6988 35.7961 43.6576 35.7675L43.6579 35.7671L42.6979 35.1057H50.2043C50.6679 35.1057 51.0438 34.7298 51.0438 34.2662L51.0436 34.2664ZM30.9261 2.92579V6.35957H27.4925L30.9261 2.92579ZM23.2664 20.3566C25.3136 18.3094 28.0028 17.2858 30.6919 17.2858C33.3811 17.2858 36.0703 18.3093 38.1174 20.3566C40.1009 22.3401 41.1933 24.9771 41.1933 27.7817C41.1933 30.5863 40.101 33.2223 38.1174 35.2046C34.0231 39.299 27.3608 39.299 23.2663 35.2044C21.5919 33.5311 20.5526 31.3917 20.2694 29.0783C20.2687 29.0696 20.2675 29.0609 20.2666 29.0522C20.2164 28.6338 20.1906 28.2097 20.1906 27.7817C20.1906 24.977 21.2829 22.3401 23.2664 20.3566ZM26.9255 39.3608V46.321H25.2076V38.655C25.765 38.9355 26.3393 39.1712 26.9255 39.3607V39.3608ZM20.2731 34.0974C20.7752 34.9218 21.379 35.6921 22.0791 36.3917C22.5364 36.849 23.0214 37.2617 23.5286 37.631V46.321H20.2731V34.0974ZM11.9417 24.8737H15.1973V46.321H11.9417V24.8737ZM3.61025 31.5365H6.8689V46.321H3.61025V31.5365ZM31.8601 46.321H28.6045V39.7744C29.2947 39.8935 29.9933 39.9535 30.692 39.9535C31.0819 39.9535 31.4717 39.9349 31.8602 39.8978V46.3209L31.8601 46.321ZM39.3043 36.3919C39.6172 36.0793 39.9101 35.7521 40.1842 35.4129L41.8746 36.5775L39.5978 38.8525L38.4422 37.1751C38.7388 36.9301 39.0269 36.6695 39.3045 36.392L39.3043 36.3919ZM48.8252 43.2894C49.1828 43.647 49.3791 44.1435 49.3639 44.6516C49.3506 45.0961 49.1723 45.4926 48.8619 45.7679C48.8496 45.7788 48.8378 45.79 48.8261 45.8015C48.1308 46.4945 47.0019 46.495 46.3094 45.8023L40.6658 40.1587L43.1813 37.6452L48.8253 43.2893L48.8252 43.2894ZM49.3646 33.4268H41.49C42.3929 31.7058 42.872 29.7808 42.872 27.7816C42.872 24.5285 41.6051 21.4699 39.3046 19.1693C35.9373 15.8021 31.0732 14.8232 26.8346 16.2308V8.03832H31.7655C32.2291 8.03832 32.605 7.66244 32.605 7.19884V2.26796H49.3646V33.4269V33.4268ZM46.3975 24.3941C46.3975 24.8577 46.0216 25.2336 45.558 25.2336H44.2167C43.7531 25.2336 43.3772 24.8577 43.3772 24.3941C43.3772 23.9305 43.7531 23.5546 44.2167 23.5546H45.558C46.0216 23.5546 46.3975 23.9305 46.3975 24.3941ZM46.3975 16.143C46.3975 16.6066 46.0216 16.9824 45.558 16.9824H36.8727C36.4091 16.9824 36.0332 16.6066 36.0332 16.143C36.0332 15.6794 36.4091 15.3035 36.8727 15.3035H45.558C46.0216 15.3035 46.3975 15.6794 46.3975 16.143ZM46.3975 20.2685C46.3975 20.7321 46.0216 21.1079 45.558 21.1079H42.5986C42.135 21.1079 41.7591 20.7321 41.7591 20.2685C41.7591 19.8049 42.135 19.429 42.5986 19.429H45.558C46.0216 19.429 46.3975 19.8049 46.3975 20.2685ZM46.3975 12.0173C46.3975 12.4809 46.0216 12.8568 45.558 12.8568H30.6412C30.1776 12.8568 29.8018 12.4809 29.8018 12.0173C29.8018 11.5537 30.1776 11.1779 30.6412 11.1779H45.558C46.0216 11.1779 46.3975 11.5537 46.3975 12.0173ZM36.0332 7.89183C36.0332 7.42823 36.4091 7.05235 36.8727 7.05235H45.558C46.0216 7.05235 46.3975 7.42823 46.3975 7.89183C46.3975 8.35543 46.0216 8.73131 45.558 8.73131H36.8727C36.4091 8.73131 36.0332 8.35543 36.0332 7.89183ZM46.3975 28.5196C46.3975 28.9832 46.0216 29.3591 45.558 29.3591H44.2167C43.7531 29.3591 43.3772 28.9832 43.3772 28.5196C43.3772 28.056 43.7531 27.6801 44.2167 27.6801H45.558C46.0216 27.6801 46.3975 28.056 46.3975 28.5196ZM28.0933 28.9761C27.759 28.6547 27.7486 28.1234 28.0698 27.789C28.3911 27.4548 28.9225 27.4443 29.2568 27.7656L30.4056 28.8699L33.171 25.8389C33.4837 25.4962 34.0146 25.4722 34.3571 25.7846C34.6996 26.0971 34.7238 26.628 34.4114 26.9705L31.0652 30.638C30.9125 30.8053 30.6989 30.9038 30.4725 30.9113C30.4634 30.9116 30.4541 30.9117 30.445 30.9117C30.2285 30.9117 30.0198 30.8279 29.8633 30.6774L28.0934 28.976L28.0933 28.9761ZM9.09131 20.7392C14.0793 20.7392 18.1373 16.6812 18.1373 11.6932V10.8537H9.93079V2.6475H9.09131C4.10345 2.6475 0.0454102 6.70544 0.0454102 11.6934C0.0454102 16.6814 4.10345 20.7394 9.09131 20.7394V20.7392ZM16.4108 12.5327C15.9929 16.201 12.8697 19.0602 9.09131 19.0602C7.48287 19.0602 5.99437 18.5406 4.78164 17.6625L9.45963 12.5327H16.4108ZM8.25183 4.37379V11.3654L3.54184 16.5304C2.41148 15.2352 1.72437 13.5434 1.72437 11.6933C1.72437 7.91502 4.58363 4.79185 8.25183 4.37379ZM20.7846 9.0459C20.7846 4.05793 16.7266 0 11.7387 0H10.8992V9.88538H20.7846V9.0459ZM12.5782 8.20642V1.72649C15.9708 2.11318 18.6714 4.81378 19.0581 8.20642H12.5782Z" fill="black"/>
<path d="M40.1845 35.4131C39.9105 35.7523 39.6175 36.0794 39.3046 36.3921C39.0271 36.6697 38.739 36.9302 38.4424 37.1752L39.598 38.8526L41.8748 36.5776L40.1844 35.413L40.1845 35.4131Z" fill="#A8D3D8"/>
<path d="M38.1173 20.3566C36.0701 18.3094 33.3809 17.2858 30.6918 17.2858C28.0026 17.2858 25.3134 18.3093 23.2663 20.3566C21.2828 22.3401 20.1904 24.9771 20.1904 27.7817C20.1904 28.2097 20.2162 28.6338 20.2664 29.0522C20.2675 29.0609 20.2685 29.0696 20.2692 29.0783C20.5525 31.3917 21.5917 33.5312 23.2662 35.2044C27.3607 39.299 34.023 39.299 38.1173 35.2046C40.1008 33.2223 41.1931 30.5863 41.1931 27.7817C41.1931 24.9771 40.1009 22.3401 38.1173 20.3566ZM37.2015 34.2918C35.4636 36.0313 33.1516 36.9894 30.6914 36.9894C28.2312 36.9894 25.9186 36.0314 24.1789 34.2918C20.5887 30.7016 20.5887 24.8597 24.1789 21.2693C25.9185 19.5298 28.2313 18.5718 30.6914 18.5718C33.1514 18.5718 35.4637 19.5299 37.2017 21.2695C38.941 23.0088 39.8991 25.3213 39.8991 27.7805C39.8991 30.2398 38.941 32.5522 37.2015 34.2917V34.2918Z" fill="#678D98"/>
<path d="M36.0141 22.4566C34.593 21.0341 32.7026 20.2507 30.6912 20.2507C28.6798 20.2507 26.7886 21.0341 25.3661 22.4566C22.4305 25.3921 22.4309 30.1691 25.3661 33.1047C26.7886 34.5271 28.6797 35.3106 30.6912 35.3106C32.7027 35.3106 34.593 34.5273 36.0139 33.105C37.4366 31.6823 38.2199 29.7915 38.2199 27.7807C38.2199 25.77 37.4365 23.8791 36.0141 22.4567V22.4566ZM34.4112 26.9709L31.065 30.6383C30.9123 30.8056 30.6986 30.9041 30.4723 30.9116C30.4632 30.9119 30.4539 30.912 30.4448 30.912C30.2283 30.912 30.0196 30.8283 29.863 30.6777L28.0932 28.9763C27.7589 28.655 27.7485 28.1236 28.0697 27.7892C28.391 27.455 28.9224 27.4445 29.2567 27.7658L30.4054 28.8701L33.1709 25.8391C33.4836 25.4964 34.0145 25.4724 34.357 25.7848C34.6995 26.0973 34.7237 26.6282 34.4113 26.9708L34.4112 26.9709Z" fill="#C8EFFE"/>
<path d="M46.3097 45.8026C47.0024 46.4952 48.1312 46.4947 48.8265 45.8017C48.838 45.7902 48.85 45.7789 48.8623 45.7681C49.1727 45.4928 49.3509 45.0963 49.3643 44.6518C49.3796 44.1436 49.1832 43.6471 48.8255 43.2896L43.1815 37.6456L40.666 40.1591L46.3096 45.8027L46.3097 45.8026Z" fill="#678D98"/>
<path d="M3.61035 31.5366H6.869V46.3212H3.61035V31.5366Z" fill="#F9D641"/>
<path d="M28.6046 39.7745V46.3211H31.8602V39.898C31.4717 39.9351 31.0819 39.9537 30.6921 39.9537C29.9934 39.9537 29.2949 39.8937 28.6045 39.7746L28.6046 39.7745Z" fill="#F46240"/>
<path d="M30.9263 2.92579L27.4927 6.35957H30.9263V2.92579Z" fill="#C3D1D0"/>
<path d="M20.2729 34.0975V46.3211H23.5284V37.6311C23.0213 37.2619 22.5362 36.8491 22.079 36.3918C21.3789 35.6921 20.7751 34.9219 20.2729 34.0975Z" fill="#01D0FB"/>
<path d="M12.5781 1.7267V8.20663H19.0581C18.6714 4.81399 15.9708 2.11338 12.5781 1.7267Z" fill="#F46240"/>
<path d="M4.78174 17.6627C5.99457 18.5408 7.48307 19.0604 9.09141 19.0604C12.8698 19.0604 15.993 16.2012 16.4109 12.5329H9.45973L4.78174 17.6627Z" fill="#F9D641"/>
<path d="M8.25208 4.374C4.58387 4.79206 1.72461 7.91513 1.72461 11.6934C1.72461 13.5436 2.41172 15.2353 3.54208 16.5305L8.25208 11.3655V4.374Z" fill="#01D0FB"/>
<path d="M11.9419 24.8738H15.1975V46.3211H11.9419V24.8738Z" fill="#30E5A3"/>
<path d="M32.6053 7.19905C32.6053 7.66265 32.2294 8.03853 31.7658 8.03853H26.835V16.231C31.0735 14.8234 35.9376 15.8023 39.3049 19.1695C41.6055 21.4701 42.8724 24.5286 42.8724 27.7818C42.8724 29.781 42.3931 31.706 41.4904 33.427H49.365V2.26806H32.6053V7.19905ZM45.5583 29.3594H44.2169C43.7533 29.3594 43.3774 28.9835 43.3774 28.5199C43.3774 28.0563 43.7533 27.6804 44.2169 27.6804H45.5583C46.0219 27.6804 46.3977 28.0563 46.3977 28.5199C46.3977 28.9835 46.0219 29.3594 45.5583 29.3594ZM45.5583 25.2339H44.2169C43.7533 25.2339 43.3774 24.858 43.3774 24.3944C43.3774 23.9308 43.7533 23.5549 44.2169 23.5549H45.5583C46.0219 23.5549 46.3977 23.9308 46.3977 24.3944C46.3977 24.858 46.0219 25.2339 45.5583 25.2339ZM45.5583 21.1084H42.5988C42.1352 21.1084 41.7593 20.7325 41.7593 20.2689C41.7593 19.8053 42.1352 19.4294 42.5988 19.4294H45.5583C46.0219 19.4294 46.3977 19.8053 46.3977 20.2689C46.3977 20.7325 46.0219 21.1084 45.5583 21.1084ZM45.5583 16.9829H36.8729C36.4093 16.9829 36.0334 16.607 36.0334 16.1434C36.0334 15.6798 36.4093 15.3039 36.8729 15.3039H45.5583C46.0219 15.3039 46.3977 15.6798 46.3977 16.1434C46.3977 16.607 46.0219 16.9829 45.5583 16.9829ZM45.5583 12.8573H30.6415C30.1779 12.8573 29.802 12.4815 29.802 12.0179C29.802 11.5543 30.1779 11.1784 30.6415 11.1784H45.5583C46.0219 11.1784 46.3977 11.5543 46.3977 12.0179C46.3977 12.4815 46.0219 12.8573 45.5583 12.8573ZM36.8729 7.05288H45.5583C46.0219 7.05288 46.3977 7.42875 46.3977 7.89235C46.3977 8.35596 46.0219 8.73183 45.5583 8.73183H36.8729C36.4093 8.73183 36.0334 8.35596 36.0334 7.89235C36.0334 7.42875 36.4093 7.05288 36.8729 7.05288Z" fill="#E6E8E8"/>
</svg>
