<svg width="49" height="48" viewBox="0 0 49 48" fill="none" xmlns="http://www.w3.org/2000/svg">
<path d="M29.6442 26.648V18.4001L24.8442 23.2001V31.448L29.6442 26.648Z" fill="#FFCD00"/>
<path d="M36.0442 12.0001V21.0481L40.8442 16.2481V40.8H16.2922L19.4922 37.6H10.4442L0.844238 47.2H12.0442H16.8442H21.6442H26.4442H31.2442H36.0442H40.8442H47.2441V40.8V36V31.2V26.4V21.6001V16.8001V12.0001V0.800095L36.0442 12.0001Z" fill="#FFCD00"/>
<path d="M44.8442 3.20009V12.0001V16.8001V21.6001V26.4V31.2V36V40.8V47.2H47.2442V40.8V36V31.2V26.4V21.6001V16.8001V12.0001V0.800095L44.8442 3.20009Z" fill="#EBBF00"/>
<path d="M31.0557 34.0224L32.8445 37.6L34.6333 34.0224C34.0779 33.7447 33.4654 33.6002 32.8445 33.6002C32.2235 33.6002 31.6111 33.7447 31.0557 34.0224Z" fill="#754C29"/>
<path d="M32.8442 28.8L36.0442 31.2V21.0481V12.0001V8.80008H32.8442V28.8Z" fill="#D80027"/>
<path d="M29.6445 31.2L32.8445 28.8V8.80008H29.6445V18.4001V26.648V31.2Z" fill="#F7941D"/>
<path d="M32.8445 33.6C33.4657 33.5983 34.0785 33.743 34.6333 34.0224L36.0445 31.2L32.8445 28.8L29.6445 31.2L31.0557 34.0224C31.6105 33.743 32.2234 33.5983 32.8445 33.6Z" fill="#D1D3D4"/>
<path d="M36.0445 8.80008V5.60009H29.6445V8.80008H32.8445H36.0445Z" fill="#2488FF"/>
<path d="M36.0445 4.00009C36.0445 3.1514 35.7074 2.33747 35.1073 1.73735C34.5071 1.13724 33.6932 0.800095 32.8445 0.800095C31.9958 0.800095 31.1819 1.13724 30.5818 1.73735C29.9817 2.33747 29.6445 3.1514 29.6445 4.00009V5.60009H36.0445V4.00009Z" fill="#F1F2F2"/>
<path d="M34.4443 8.80008V12.0001V21.0481V30L36.0443 31.2V21.0481V12.0001V8.80008H34.4443Z" fill="#BD0022"/>
<path d="M34.4443 5.60009H36.0443V8.80008H34.4443V5.60009Z" fill="#006DF0"/>
<path d="M32.8444 0.800095C32.5741 0.803547 32.3052 0.841452 32.0444 0.912894C32.7301 1.08865 33.3379 1.48727 33.7723 2.0461C34.2068 2.60492 34.4432 3.29226 34.4444 4.00009V5.60009H36.0444V4.00009C36.0444 3.1514 35.7073 2.33747 35.1072 1.73735C34.5071 1.13724 33.6931 0.800095 32.8444 0.800095Z" fill="#D1D3D4"/>
<path d="M23.2442 0.800095H2.44424C1.56058 0.800095 0.844238 1.51644 0.844238 2.40009V36C0.844238 36.8837 1.56058 37.6 2.44424 37.6H23.2442C24.1278 37.6 24.8442 36.8837 24.8442 36V2.40009C24.8442 1.51644 24.1278 0.800095 23.2442 0.800095Z" fill="#006DF0"/>
<path d="M23.2443 0.800095H22.4443C22.8683 0.801361 23.2745 0.970338 23.5743 1.27012C23.8741 1.56991 24.0431 1.97614 24.0443 2.40009V36C24.0431 36.424 23.8741 36.8302 23.5743 37.13C23.2745 37.4298 22.8683 37.5988 22.4443 37.6H23.2443C23.6683 37.5988 24.0745 37.4298 24.3743 37.13C24.6741 36.8302 24.8431 36.424 24.8443 36V2.40009C24.8431 1.97614 24.6741 1.56991 24.3743 1.27012C24.0745 0.970338 23.6683 0.801361 23.2443 0.800095Z" fill="#005ECE"/>
<path d="M22.4446 12.0001V3.20009H3.24463V12.0001H12.8446H22.4446Z" fill="#7ED63E"/>
<path d="M12.8442 12.0001H22.4442V20.0001H12.8442V12.0001Z" fill="#9BC9FF"/>
<path d="M3.24463 12.0001H12.8446V20.0001H3.24463V12.0001Z" fill="#57A4FF"/>
<path d="M3.24463 20.0001H12.8446V28H3.24463V20.0001Z" fill="#9BC9FF"/>
<path d="M12.8446 28H3.24463V35.2H22.4446V28H12.8446Z" fill="#D80027"/>
<path d="M12.8442 20.0001H22.4442V28H12.8442V20.0001Z" fill="#57A4FF"/>
<path d="M47.5507 0.0608926C47.4045 0.000328868 47.2436 -0.0155039 47.0884 0.0153976C46.9332 0.0462992 46.7906 0.122546 46.6787 0.234492L36.8444 10.0689V4.00008C36.8444 2.93922 36.4229 1.92181 35.6728 1.17166C34.9226 0.421519 33.9052 9.27318e-05 32.8444 9.27318e-05C31.7835 9.27318e-05 30.7661 0.421519 30.0159 1.17166C29.2658 1.92181 28.8444 2.93922 28.8444 4.00008V18.0689L25.6444 21.2689V2.40009C25.6444 1.76357 25.3915 1.15312 24.9414 0.703035C24.4914 0.252949 23.8809 9.27318e-05 23.2444 9.27318e-05H2.44443C1.80791 9.27318e-05 1.19746 0.252949 0.747376 0.703035C0.29729 1.15312 0.0444336 1.76357 0.0444336 2.40009V36C0.0444336 36.6365 0.29729 37.247 0.747376 37.6971C1.19746 38.1472 1.80791 38.4 2.44443 38.4H8.51322L0.278833 46.6344C0.166986 46.7463 0.0908208 46.8888 0.0599668 47.044C0.0291128 47.1991 0.0449552 47.36 0.105491 47.5061C0.166027 47.6523 0.268538 47.7772 0.400066 47.8651C0.531594 47.953 0.686232 48 0.844432 48H47.2443C47.4565 48 47.66 47.9157 47.81 47.7657C47.9601 47.6157 48.0443 47.4122 48.0443 47.2V0.800091C48.0444 0.641879 47.9975 0.487207 47.9096 0.355632C47.8218 0.224057 47.6969 0.121488 47.5507 0.0608926ZM19.8236 38.4H23.2444C23.8809 38.4 24.4914 38.1472 24.9414 37.6971C25.3915 37.247 25.6444 36.6365 25.6444 36V31.7792L28.8444 28.5792V31.2C28.843 31.3238 28.8704 31.4462 28.9244 31.5576L32.1244 37.9576C32.1907 38.0907 32.2929 38.2027 32.4193 38.281C32.5458 38.3593 32.6916 38.4008 32.8404 38.4008C32.9891 38.4008 33.1349 38.3593 33.2614 38.281C33.3879 38.2027 33.49 38.0907 33.5564 37.9576L36.7564 31.5576C36.8131 31.4469 36.8432 31.3245 36.8444 31.2V21.3793L40.0444 18.1793V40H18.2236L19.8236 38.4ZM35.2444 29.6L33.6444 28.4V9.60007H35.2444V29.6ZM34.242 33.016C33.3304 32.7416 32.3583 32.7416 31.4468 33.016L30.658 31.44L32.8444 29.8L35.0308 31.44L34.242 33.016ZM33.5108 34.48L32.8444 35.8112L32.178 34.48C32.6176 34.3888 33.0712 34.3888 33.5108 34.48ZM30.4444 9.60007H32.0444V28.4L30.4444 29.6V9.60007ZM35.2444 8.00008H30.4444V6.40008H35.2444V8.00008ZM30.4444 4.00008C30.4444 3.36357 30.6972 2.75312 31.1473 2.30303C31.5974 1.85295 32.2079 1.60009 32.8444 1.60009C33.4809 1.60009 34.0913 1.85295 34.5414 2.30303C34.9915 2.75312 35.2444 3.36357 35.2444 4.00008V4.80008H30.4444V4.00008ZM28.8444 20.3313V26.32L25.6444 29.52V23.5312L28.8444 20.3313ZM1.64443 36V2.40009C1.64443 2.18792 1.72872 1.98443 1.87874 1.8344C2.02877 1.68438 2.23226 1.60009 2.44443 1.60009H23.2444C23.4566 1.60009 23.66 1.68438 23.8101 1.8344C23.9601 1.98443 24.0444 2.18792 24.0444 2.40009V36C24.0444 36.2122 23.9601 36.4157 23.8101 36.5657C23.66 36.7157 23.4566 36.8 23.2444 36.8H2.44443C2.23226 36.8 2.02877 36.7157 1.87874 36.5657C1.72872 36.4157 1.64443 36.2122 1.64443 36ZM41.6444 46.4V44H40.0444V46.4H36.8444V44H35.2444V46.4H32.0444V44H30.4444V46.4H27.2444V44H25.6444V46.4H22.4444V44H20.8444V46.4H17.6444V44H16.0444V46.4H12.8444V44H11.2444V46.4H2.77563L10.7756 38.4H17.5644L15.7244 40.2344C15.6124 40.3464 15.5362 40.4892 15.5054 40.6446C15.4746 40.8 15.4907 40.961 15.5515 41.1072C15.6124 41.2535 15.7152 41.3784 15.8471 41.4661C15.979 41.5539 16.134 41.6005 16.2924 41.6H40.8444C41.0565 41.6 41.26 41.5157 41.41 41.3657C41.5601 41.2157 41.6444 41.0122 41.6444 40.8V16.2481C41.6443 16.0899 41.5974 15.9352 41.5095 15.8037C41.4216 15.6722 41.2966 15.5697 41.1505 15.5091C41.0043 15.4486 40.8435 15.4327 40.6883 15.4636C40.5332 15.4945 40.3906 15.5706 40.2788 15.6825L36.8444 19.1201V12.3313L46.4443 2.73129V11.2001H44.0443V12.8001H46.4443V16.0001H44.0443V17.6001H46.4443V20.8001H44.0443V22.4H46.4443V25.6H44.0443V27.2H46.4443V30.4H44.0443V32H46.4443V35.2H44.0443V36.8H46.4443V40H44.0443V41.6H46.4443V46.4H41.6444Z" fill="black"/>
<path d="M23.2443 35.2V3.20009C23.2443 2.98792 23.16 2.78444 23.01 2.63441C22.86 2.48438 22.6565 2.40009 22.4443 2.40009H3.24433C3.03216 2.40009 2.82868 2.48438 2.67865 2.63441C2.52862 2.78444 2.44434 2.98792 2.44434 3.20009V35.2C2.44434 35.4122 2.52862 35.6157 2.67865 35.7657C2.82868 35.9157 3.03216 36 3.24433 36H22.4443C22.6565 36 22.86 35.9157 23.01 35.7657C23.16 35.6157 23.2443 35.4122 23.2443 35.2ZM4.04433 27.2V20.8001H12.0443V27.2H4.04433ZM21.6443 12.8001V19.2001H13.6443V12.8001H21.6443ZM12.0443 19.2001H4.04433V12.8001H12.0443V19.2001ZM13.6443 20.8001H21.6443V27.2H13.6443V20.8001ZM4.04433 4.00009H21.6443V11.2001H4.04433V4.00009ZM21.6443 34.4H4.04433V28.8H21.6443V34.4Z" fill="black"/>
<path d="M7.24453 18.4001H8.84453V16.8001H10.4445V15.2001H8.84453V13.6001H7.24453V15.2001H5.64453V16.8001H7.24453V18.4001Z" fill="black"/>
<path d="M9.17582 21.7377L8.04462 22.8689L6.91342 21.7377L5.78223 22.8689L6.91342 24.0001L5.78223 25.1312L6.91342 26.2624L8.04462 25.1312L9.17582 26.2624L10.307 25.1312L9.17582 24.0001L10.307 22.8689L9.17582 21.7377Z" fill="black"/>
<path d="M15.2446 15.2001H20.0446V16.8001H15.2446V15.2001Z" fill="black"/>
<path d="M15.2446 23.2001V24.8001H20.0446V23.2001H17.6446H15.2446Z" fill="black"/>
<path d="M10.4443 29.6H15.2443V31.2H10.4443V29.6Z" fill="black"/>
<path d="M10.4443 32H15.2443V33.6H10.4443V32Z" fill="black"/>
<path d="M17.9482 23.136C17.9992 23.1184 18.0476 23.0942 18.0922 23.064L18.2122 22.968L18.3082 22.848C18.3382 22.8033 18.3624 22.7549 18.3802 22.704C18.4035 22.6589 18.4194 22.6102 18.4274 22.56C18.4374 22.5073 18.443 22.4538 18.4442 22.4C18.4452 22.2412 18.3987 22.0856 18.3109 21.9532C18.2231 21.8207 18.0978 21.7175 17.951 21.6566C17.8043 21.5956 17.6427 21.5798 17.4869 21.611C17.3311 21.6423 17.1881 21.7192 17.0762 21.8321C17.0039 21.9085 16.9469 21.9981 16.9082 22.0961C16.8672 22.1922 16.8455 22.2955 16.8442 22.4C16.8456 22.4537 16.851 22.5072 16.8602 22.56C16.8689 22.6102 16.8851 22.6587 16.9082 22.704C16.9257 22.755 16.9499 22.8035 16.9802 22.848C17.0098 22.89 17.0418 22.93 17.0762 22.968L17.1954 23.064C17.2404 23.0942 17.2891 23.1184 17.3402 23.136C17.3856 23.1592 17.4341 23.1753 17.4842 23.184C17.5371 23.193 17.5906 23.1983 17.6442 23.2C17.6979 23.1986 17.7514 23.1933 17.8042 23.184C17.8543 23.1752 17.9029 23.159 17.9482 23.136Z" fill="black"/>
<path d="M18.2122 25.0321C18.174 24.9978 18.134 24.9658 18.0922 24.9361C18.0475 24.9059 17.9991 24.8817 17.9482 24.8641C17.9028 24.8411 17.8543 24.8249 17.8042 24.8161C17.6989 24.792 17.5895 24.792 17.4842 24.8161C17.4341 24.8248 17.3855 24.8409 17.3402 24.8641C17.289 24.8817 17.2403 24.9059 17.1954 24.9361C17.1539 24.9658 17.1141 24.9978 17.0762 25.0321C17.0022 25.1072 16.9449 25.1972 16.9082 25.2961C16.866 25.3918 16.8442 25.4954 16.8442 25.6001C16.8442 25.7047 16.866 25.8083 16.9082 25.9041C16.9488 26.001 17.0056 26.0902 17.0762 26.168C17.2279 26.3168 17.4318 26.4001 17.6442 26.4001C17.8566 26.4001 18.0605 26.3168 18.2122 26.168C18.3583 26.0147 18.4411 25.8118 18.4442 25.6001C18.4429 25.4955 18.4212 25.3922 18.3802 25.2961C18.3435 25.1972 18.2862 25.1072 18.2122 25.0321Z" fill="black"/>
</svg>
