<svg width="14" height="12" viewBox="0 0 14 12" fill="none" xmlns="http://www.w3.org/2000/svg">
<path d="M4.55039 8.20026C7.06392 8.20026 9.10055 6.47645 9.10055 4.35013C9.10055 2.22381 7.06392 0.5 4.55039 0.5C2.03687 0.5 0.000239418 2.22381 0.000239418 4.35013C0.000239418 5.19453 0.321813 5.9755 0.866519 6.61208C0.789954 6.81771 0.6762 6.99928 0.555883 7.15241C0.45088 7.28804 0.343689 7.39305 0.264936 7.46524C0.22556 7.50024 0.192746 7.52868 0.17087 7.54618C0.159932 7.55493 0.151182 7.56149 0.146807 7.56368L0.142432 7.56805C0.0221152 7.65774 -0.0303866 7.81525 0.01774 7.95744C0.0658666 8.09963 0.199309 8.20026 0.350251 8.20026C0.827142 8.20026 1.30841 8.07776 1.70873 7.92681C1.90999 7.85025 2.09812 7.76493 2.26219 7.67743C2.93378 8.00994 3.71474 8.20026 4.55039 8.20026ZM9.80057 4.35013C9.80057 6.80678 7.63269 8.65746 5.06447 8.87841C5.59605 10.506 7.35924 11.7004 9.45056 11.7004C10.2862 11.7004 11.0672 11.5101 11.7409 11.1775C11.905 11.2651 12.091 11.3504 12.2922 11.4269C12.6925 11.5779 13.1738 11.7004 13.6507 11.7004C13.8016 11.7004 13.9373 11.6019 13.9832 11.4576C14.0292 11.3132 13.9788 11.1557 13.8563 11.066L13.852 11.0616C13.8476 11.0572 13.8388 11.0529 13.8279 11.0441C13.806 11.0266 13.7732 11.0004 13.7338 10.9632C13.6551 10.891 13.5479 10.786 13.4429 10.6503C13.3226 10.4972 13.2088 10.3135 13.1322 10.11C13.677 9.47562 13.9985 8.69465 13.9985 7.84806C13.9985 5.81799 12.1413 4.15325 9.78526 4.00887C9.79401 4.12043 9.79838 4.23419 9.79838 4.34794L9.80057 4.35013Z" fill="#D3224D"/>
</svg>
