<svg width="32" height="33" viewBox="0 0 32 33" fill="none" xmlns="http://www.w3.org/2000/svg">
<path d="M28.7963 29.441C28.7963 29.6141 28.718 29.7775 28.5831 29.8861C28.4483 29.9941 28.2723 30.0369 28.1031 29.9992C28.0323 29.9838 27.9643 29.9729 27.8946 29.9587C27.6637 29.9118 27.4363 29.8695 27.2129 29.8341C27.0951 29.8152 26.9786 29.7981 26.8631 29.7827C26.6334 29.7512 26.4066 29.7255 26.1849 29.7061C26.0872 29.6975 25.9894 29.689 25.8934 29.6827C25.6609 29.6672 25.4329 29.6575 25.2095 29.6541C25.1129 29.6524 25.0169 29.6518 24.922 29.6524C24.7049 29.6535 24.4918 29.6592 24.2838 29.6712C24.218 29.6747 24.1512 29.6781 24.0861 29.6827C23.8603 29.6987 23.6409 29.7215 23.4255 29.749C23.3438 29.7592 23.2632 29.7707 23.1832 29.7827C22.9872 29.8118 22.7946 29.845 22.6072 29.8821C22.5626 29.8912 22.5164 29.8987 22.4718 29.9084C22.2592 29.9535 22.0547 30.0055 21.8535 30.0604C21.7844 30.0792 21.7169 30.0987 21.6495 30.1187C21.477 30.1695 21.309 30.2227 21.1455 30.2792C21.1101 30.2912 21.073 30.3027 21.0381 30.3152C20.849 30.3832 20.6678 30.4558 20.4907 30.5301C20.4324 30.5547 20.3758 30.5792 20.3187 30.6044C20.1713 30.6695 20.0273 30.7364 19.889 30.8049C19.8581 30.8204 19.8256 30.8346 19.7947 30.8506C19.6336 30.9324 19.4804 31.0164 19.3313 31.1015C19.2833 31.1289 19.2364 31.1564 19.1896 31.1844C19.0661 31.2575 18.9467 31.3306 18.8319 31.4049C18.8061 31.4215 18.7781 31.4381 18.7524 31.4552C18.6193 31.5432 18.493 31.6312 18.3719 31.7192C18.3336 31.7466 18.2964 31.7746 18.2593 31.8021C18.1599 31.8758 18.0644 31.9495 17.9736 32.0221C17.9524 32.0386 17.9296 32.0558 17.909 32.0729C17.8033 32.1586 17.7044 32.2432 17.6107 32.3255C17.5816 32.3512 17.5536 32.3763 17.5256 32.4015C17.4507 32.4689 17.3793 32.5346 17.3125 32.5986C17.2999 32.6106 17.2862 32.6232 17.2742 32.6346H32.0002V12.543H28.7968L28.7963 29.441Z" fill="#081933"/>
<path d="M7.81813 12.1327C7.73813 11.9744 7.65756 11.8161 7.58671 11.6527C7.53871 11.5424 7.49928 11.4281 7.45585 11.3155C7.39471 11.1578 7.33357 11.0007 7.281 10.839C7.24214 10.7196 7.21128 10.5973 7.177 10.4756C7.13243 10.315 7.08843 10.155 7.05243 9.991C7.02443 9.86472 7.00329 9.73615 6.981 9.60758C6.95243 9.44358 6.925 9.27901 6.905 9.11216C6.889 8.98016 6.87929 8.84702 6.869 8.71388C6.86158 8.61502 6.84672 8.51846 6.84215 8.41846C6.03816 8.42531 5.20218 8.50931 4.34619 8.66874V11.9675C4.34619 11.9675 4.34619 11.9693 4.34619 11.9704V28.7432C4.75533 28.6718 5.15075 28.6227 5.53931 28.585C5.59931 28.5792 5.65988 28.5718 5.71931 28.5667C5.86388 28.5541 6.00502 28.5467 6.14673 28.5387C6.23016 28.5341 6.31416 28.5284 6.39644 28.525C6.52444 28.5198 6.64958 28.5181 6.77529 28.5164C6.83586 28.5158 6.89758 28.5124 6.95757 28.5124C6.98386 28.5124 7.00843 28.5147 7.03472 28.5147C7.237 28.5158 7.43528 28.5221 7.63071 28.5318C7.67699 28.5341 7.72442 28.5347 7.7707 28.5375C8.25184 28.5661 8.7124 28.6198 9.15354 28.6941C9.21639 28.7044 9.27696 28.717 9.33868 28.7284C9.49239 28.7564 9.64438 28.7861 9.79295 28.8192C9.86438 28.8352 9.93524 28.8518 10.0055 28.869C10.1421 28.9015 10.2764 28.9364 10.4084 28.973C10.4775 28.9924 10.5472 29.0112 10.6152 29.0312C10.7512 29.0712 10.8844 29.1141 11.0158 29.1575C11.0724 29.1764 11.1295 29.1941 11.1849 29.2135C11.3638 29.2758 11.5386 29.3409 11.7083 29.4089C11.7129 29.4107 11.7175 29.4124 11.7221 29.4141C11.8975 29.4849 12.0672 29.5587 12.2329 29.6341C12.2832 29.6569 12.3306 29.6809 12.3803 29.7038C12.494 29.7575 12.606 29.8118 12.7146 29.8672C12.7712 29.8958 12.8255 29.9249 12.8809 29.9541C12.9798 30.0061 13.0763 30.0592 13.1706 30.1124C13.2238 30.1426 13.2769 30.1724 13.3289 30.2026C13.4249 30.2586 13.5175 30.3152 13.6089 30.3718C13.6529 30.3992 13.698 30.4266 13.7415 30.4541C13.8523 30.5249 13.9592 30.5958 14.0632 30.6672C14.0826 30.6804 14.1032 30.6935 14.122 30.7066C14.2454 30.7923 14.3637 30.8775 14.4774 30.9626C14.5054 30.9832 14.5312 31.0038 14.558 31.0249C14.6414 31.0883 14.7232 31.1518 14.8009 31.2141C14.8363 31.2426 14.8706 31.2706 14.9049 31.2992C14.9711 31.3541 15.0363 31.4078 15.0986 31.4609C15.1323 31.4901 15.1654 31.5186 15.198 31.5472C15.258 31.5998 15.3151 31.6512 15.3706 31.702C15.3889 31.7186 15.4094 31.7363 15.4271 31.7523V17.1766C15.362 17.1726 15.2986 17.1606 15.2334 17.1554C15.0986 17.144 14.9654 17.1286 14.8323 17.1114C14.6689 17.0903 14.5066 17.0663 14.3454 17.0372C14.214 17.0132 14.0843 16.9863 13.9552 16.9566C13.7975 16.9206 13.6415 16.88 13.4872 16.836C13.3603 16.7995 13.234 16.7617 13.1095 16.7206C12.9575 16.6697 12.8083 16.6137 12.6598 16.5555C12.5386 16.508 12.418 16.46 12.2998 16.4075C12.1535 16.3423 12.0106 16.2715 11.8683 16.1995C11.7541 16.1417 11.6398 16.0846 11.5289 16.0223C11.3884 15.9435 11.2524 15.8572 11.1164 15.7715C11.0106 15.7046 10.9038 15.64 10.8015 15.5692C10.6655 15.4749 10.5358 15.3738 10.4055 15.2726C10.3107 15.1995 10.2135 15.1292 10.1221 15.0521C9.98781 14.9395 9.86095 14.8183 9.73295 14.6983C9.65353 14.6235 9.57067 14.5526 9.49353 14.4755C9.34553 14.3264 9.20725 14.1681 9.07011 14.0092C9.02154 13.9532 8.9684 13.9006 8.92097 13.8435C8.7404 13.6241 8.57069 13.3967 8.41069 13.1612C8.36612 13.0949 8.32784 13.0247 8.28498 12.9572C8.17412 12.7841 8.06384 12.6104 7.96384 12.4292C7.91127 12.3332 7.8667 12.2327 7.81699 12.135L7.81813 12.1327Z" fill="#081933"/>
<path d="M14.6746 32.5855C14.614 32.5278 14.5495 32.4683 14.482 32.4078C14.4495 32.3786 14.4169 32.3489 14.3826 32.3192C14.2912 32.2392 14.1958 32.1581 14.0935 32.0746C14.0683 32.0541 14.0409 32.0335 14.0152 32.0129C13.9283 31.9438 13.8375 31.8741 13.7432 31.8038C13.7043 31.7746 13.6649 31.7455 13.6243 31.7163C13.5043 31.6295 13.3798 31.5421 13.2478 31.4558C13.2198 31.4375 13.1895 31.4192 13.1609 31.4009C13.0483 31.3284 12.9312 31.2564 12.8101 31.1844C12.7626 31.1564 12.7152 31.1284 12.6666 31.1009C12.5175 31.0158 12.3644 30.9318 12.2038 30.8501C12.1735 30.8346 12.1415 30.8204 12.1112 30.8055C11.9718 30.7364 11.8272 30.6695 11.6792 30.6038C11.6232 30.5792 11.5667 30.5541 11.5089 30.5301C11.3318 30.4552 11.1501 30.3827 10.9604 30.3147C10.9261 30.3027 10.8895 30.2918 10.8547 30.2792C10.6907 30.2221 10.5215 30.1689 10.349 30.1181C10.2815 30.0981 10.2135 30.0787 10.145 30.0598C9.94383 30.0049 9.73869 29.9529 9.52612 29.9078C9.48212 29.8987 9.43583 29.8907 9.39126 29.8821C9.20441 29.8444 9.01184 29.8118 8.81642 29.7827C8.73585 29.7707 8.65528 29.7592 8.57299 29.749C8.35814 29.7215 8.13929 29.6987 7.91472 29.6827C7.84843 29.6781 7.78044 29.6747 7.71358 29.6712C7.50673 29.6598 7.2953 29.6541 7.07988 29.653C6.98331 29.653 6.88617 29.653 6.78845 29.6547C6.56674 29.6581 6.34103 29.6678 6.11075 29.6832C6.0119 29.6901 5.9119 29.6981 5.81133 29.7072C5.59076 29.7267 5.36562 29.7524 5.13705 29.7832C5.02163 29.7987 4.90506 29.8164 4.78734 29.8347C4.56392 29.8701 4.3365 29.9124 4.10621 29.9592C4.03593 29.9735 3.9685 29.9844 3.89765 29.9998C3.72793 30.0375 3.55251 29.9947 3.41765 29.8867C3.28337 29.7781 3.20452 29.6147 3.20452 29.4415V12.543H0V32.6335H14.7255C14.7095 32.618 14.6912 32.6015 14.6746 32.5855Z" fill="#081933"/>
<path d="M19.3685 7.93362L14.0429 4.21597C14.0223 4.20168 14.0011 4.19482 13.98 4.19482C13.9629 4.19482 13.9451 4.1994 13.9274 4.20854C13.8874 4.22968 13.8674 4.26282 13.8674 4.30739V11.7433C13.8674 11.7884 13.8874 11.8215 13.9274 11.8421C13.9669 11.8627 14.0069 11.8604 14.0429 11.8347L19.3685 8.11704C19.4079 8.08961 19.4159 8.0519 19.4159 8.02561C19.4159 7.99933 19.4073 7.96104 19.3685 7.93362Z" fill="#081933"/>
<path d="M25.1303 8.71486C25.12 8.84857 25.1103 8.98171 25.0943 9.11313C25.0743 9.27999 25.0475 9.44456 25.0183 9.60856C24.996 9.73712 24.9743 9.86512 24.9469 9.99198C24.9109 10.156 24.8669 10.316 24.8223 10.4765C24.7886 10.5983 24.7572 10.7205 24.7183 10.84C24.6658 11.0017 24.6046 11.1588 24.5435 11.3165C24.5 11.4291 24.46 11.5434 24.4126 11.6537C24.3418 11.8171 24.2612 11.9754 24.1812 12.1337C24.1321 12.2314 24.0875 12.3319 24.0343 12.4279C23.9349 12.6091 23.8246 12.7828 23.7132 12.9559C23.6703 13.0234 23.6321 13.0936 23.5875 13.1599C23.4281 13.3953 23.2578 13.6233 23.0772 13.8422C23.0298 13.8999 22.9772 13.9519 22.9281 14.0079C22.7909 14.1668 22.6521 14.325 22.5047 14.4742C22.4281 14.5519 22.3447 14.6222 22.2652 14.697C22.1372 14.817 22.011 14.9382 21.8761 15.0507C21.7841 15.1279 21.687 15.1976 21.5927 15.2713C21.4624 15.3725 21.3321 15.4742 21.1967 15.5679C21.0938 15.6387 20.9875 15.7033 20.8818 15.7702C20.7458 15.8564 20.6098 15.9422 20.4693 16.021C20.3578 16.0833 20.2436 16.1404 20.1298 16.1982C19.9876 16.2702 19.8453 16.3416 19.6984 16.4062C19.5801 16.4587 19.459 16.5061 19.3384 16.5541C19.1899 16.6124 19.0407 16.6684 18.8887 16.7193C18.7641 16.761 18.6379 16.7987 18.511 16.8347C18.3562 16.8787 18.2007 16.9193 18.043 16.9553C17.9139 16.985 17.7836 17.0119 17.6527 17.0359C17.4916 17.0656 17.3293 17.0896 17.1659 17.1101C17.0328 17.1273 16.8996 17.1427 16.7648 17.1541C16.6996 17.1593 16.6368 17.1713 16.571 17.1753V31.7516C16.5779 31.7453 16.5865 31.7379 16.5933 31.7316C16.6836 31.6487 16.779 31.5636 16.8808 31.4756C16.8939 31.4642 16.9059 31.4533 16.9196 31.4419C17.0356 31.343 17.1573 31.2425 17.2882 31.1402C17.2905 31.1385 17.2927 31.1367 17.2945 31.135C17.4173 31.0385 17.5487 30.9408 17.6847 30.8419C17.7059 30.8265 17.7276 30.811 17.7493 30.7956C18.0344 30.5922 18.347 30.3888 18.6876 30.1905C18.7144 30.1751 18.7419 30.1596 18.7687 30.1436C18.927 30.0533 19.0904 29.9642 19.2601 29.8768C19.2761 29.8682 19.2916 29.8602 19.3081 29.8516C19.4956 29.7562 19.6904 29.6642 19.8921 29.5751C19.9161 29.5642 19.9407 29.5545 19.9653 29.5436C20.1436 29.4659 20.3281 29.3916 20.5173 29.3202C20.5533 29.3065 20.5887 29.2928 20.6253 29.2796C21.0533 29.1225 21.5092 28.9831 21.9921 28.8671C22.0389 28.8556 22.0858 28.8448 22.1332 28.8339C22.3698 28.7802 22.6109 28.7305 22.8601 28.6894C22.8658 28.6882 22.8715 28.6871 22.8772 28.6865C23.1372 28.6436 23.4058 28.6094 23.6801 28.5814C23.7258 28.5768 23.7726 28.5734 23.8189 28.5688C24.0606 28.5465 24.3081 28.5311 24.5606 28.5225C24.6006 28.5214 24.6389 28.5185 24.6789 28.5179C24.972 28.5099 25.272 28.5111 25.5795 28.5225C25.6 28.5231 25.6212 28.5254 25.6423 28.5259C25.9275 28.5379 26.2194 28.5602 26.5166 28.5899C26.5663 28.5951 26.6154 28.5996 26.6657 28.6054C26.9886 28.6414 27.316 28.6836 27.6526 28.7425V11.9714C27.6526 11.9714 27.6526 11.9697 27.6526 11.9685V8.66971C26.7966 8.50972 25.9606 8.42572 25.1566 8.41943C25.1526 8.51943 25.1378 8.616 25.1303 8.71486Z" fill="#081933"/>
<path d="M24.0155 7.86672C23.9349 3.52908 20.339 0 15.9996 0C11.6603 0 8.06435 3.52908 7.98378 7.86672C7.98378 7.88729 7.98207 7.90729 7.97921 7.92729C7.97521 7.95815 7.97693 7.99243 7.97693 8.02272C7.97693 12.4501 11.5757 16.0517 15.9996 16.0517C20.4236 16.0517 24.0224 12.4501 24.0224 8.02272C24.0224 7.99243 24.0241 7.95815 24.0201 7.92729C24.0178 7.90729 24.0161 7.88729 24.0155 7.86672ZM20.0219 9.05413L14.6962 12.7718C14.4814 12.9221 14.2305 12.9981 13.9785 12.9981C13.7803 12.9981 13.5814 12.9506 13.398 12.8552C12.982 12.6386 12.7237 12.2124 12.7237 11.7432V4.30735C12.7237 3.83822 12.982 3.41194 13.398 3.19537C13.8145 2.97823 14.3122 3.01023 14.6957 3.2788L20.0213 6.99645C20.3573 7.2313 20.5579 7.61529 20.5579 8.025C20.5579 8.43471 20.3573 8.81927 20.0213 9.05356L20.0219 9.05413Z" fill="#081933"/>
</svg>
