<svg width="39" height="30" viewBox="0 0 39 30" fill="none" xmlns="http://www.w3.org/2000/svg">
<path d="M6.07327 0.601074C6.07224 0.601074 6.07107 0.601074 6.07004 0.601074C5.70685 0.601074 5.36526 0.742651 5.10731 0.999947C4.84653 1.26009 4.70288 1.60647 4.70288 1.97521V22.5802C4.70288 23.3358 5.32 23.952 6.0787 23.954C9.27718 23.9616 14.6359 24.6282 18.3327 28.4968V6.93313C18.3327 6.677 18.2673 6.43639 18.1438 6.23727C15.1097 1.35098 9.27899 0.608573 6.07327 0.601074Z" fill="#0EC56D"/>
<path d="M34.0962 22.5803V1.97521C34.0962 1.60647 33.9526 1.26009 33.6918 0.999947C33.4339 0.742651 33.092 0.601074 32.7292 0.601074C32.728 0.601074 32.7269 0.601074 32.7258 0.601074C29.5203 0.608703 23.6896 1.35111 20.6553 6.2374C20.5318 6.43651 20.4666 6.67713 20.4666 6.93326V28.4968C24.1633 24.6282 29.5221 23.9616 32.7205 23.954C33.4791 23.952 34.0962 23.3358 34.0962 22.5803Z" fill="#0EC56D"/>
<path d="M37.2254 5.35254H36.229V22.5798C36.229 24.509 34.6572 26.0822 32.725 26.087C30.012 26.0934 25.5387 26.6239 22.3706 29.6224C27.8498 28.2808 33.6259 29.1529 36.9178 29.9031C37.3288 29.9967 37.7535 29.9 38.0828 29.6375C38.411 29.3757 38.5992 28.9843 38.5992 28.5642V6.72642C38.5994 5.96889 37.9829 5.35254 37.2254 5.35254Z" fill="#0EC56D"/>
<path d="M2.56969 22.5798V5.35254H1.57334C0.815938 5.35254 0.199463 5.96889 0.199463 6.72642V28.5638C0.199463 28.9841 0.387715 29.3753 0.715864 29.6371C1.04492 29.8995 1.46926 29.9966 1.88094 29.9027C5.17277 29.1524 10.949 28.2804 16.428 29.622C13.26 26.6237 8.78667 26.0933 6.07369 26.0868C4.14165 26.0822 2.56969 24.509 2.56969 22.5798Z" fill="#0EC56D"/>
</svg>
