<svg width="24" height="17" viewBox="0 0 24 17" fill="none" xmlns="http://www.w3.org/2000/svg">
<path d="M1.30893 0.5H22.6911C23.4129 0.504167 24 1.07083 24 1.7625V15.2333C24 15.925 23.4129 16.4917 22.6911 16.4958L1.30458 16.5C0.587063 16.4917 0 15.925 0 15.2375V1.7625C0 1.07083 0.587063 0.504167 1.30893 0.5Z" fill="#DE2910"/>
<path d="M3.65282 2.1001L5.127 6.44176L1.26978 3.75843H6.03586L2.17864 6.44176L3.65282 2.1001Z" fill="#FFDE00"/>
<path d="M8.15377 1.36255L8.01462 2.87922L7.19708 1.57505L8.65821 2.17088L7.11011 2.51255L8.15377 1.36255Z" fill="#FFDE00"/>
<path d="M10.0975 3.14173L9.35387 4.48756L9.12775 2.9834L10.2366 4.07507L8.67114 3.81256L10.0975 3.14173Z" fill="#FFDE00"/>
<path d="M10.2801 5.82505L9.03206 6.76255L9.46692 5.30005L10.0105 6.72922L8.69287 5.87922L10.2801 5.82505Z" fill="#FFDE00"/>
<path d="M8.12308 6.94995L8.04915 8.47078L7.17508 7.19995L8.6623 7.73745L7.13159 8.14162L8.12308 6.94995Z" fill="#FFDE00"/>
</svg>
