<svg width="25" height="16" viewBox="0 0 25 16" fill="none" xmlns="http://www.w3.org/2000/svg">
<g id="flag">
<path id="Vector" d="M24.579 16H1.00017C0.767649 16 0.579102 15.8115 0.579102 15.5789V0.421071C0.579102 0.188547 0.767649 0 1.00017 0H24.5791C24.8116 0 25.0001 0.188547 25.0001 0.421071V15.5789C25.0001 15.8115 24.8116 16 24.579 16Z" fill="#F5F5F5"/>
<g id="Group">
<path id="Vector_2" d="M25.0001 1.23083H0.579102V0.421071C0.579102 0.188547 0.767649 0 1.00017 0H24.5791C24.8116 0 25.0001 0.188547 25.0001 0.421071L25.0001 1.23083Z" fill="#FF4B55"/>
<path id="Vector_3" d="M25.0001 4.9231H0.579102V6.15388H25.0001V4.9231Z" fill="#FF4B55"/>
<path id="Vector_4" d="M25.0001 2.46143H0.579102V3.69221H25.0001V2.46143Z" fill="#FF4B55"/>
<path id="Vector_5" d="M25.0001 8.61535H1.00017C0.767649 8.61535 0.579102 8.4268 0.579102 8.19428V7.38452H25.0001V8.61535Z" fill="#FF4B55"/>
<path id="Vector_6" d="M25.0001 12.3081H0.579102V13.5389H25.0001V12.3081Z" fill="#FF4B55"/>
<path id="Vector_7" d="M24.579 16.0001H1.00017C0.767649 16.0001 0.579102 15.8115 0.579102 15.579V14.7693H25.0001V15.579C25.0001 15.8116 24.8116 16.0001 24.579 16.0001Z" fill="#FF4B55"/>
<path id="Vector_8" d="M25.0001 9.84644H0.579102V11.0772H25.0001V9.84644Z" fill="#FF4B55"/>
</g>
<path id="Vector_9" d="M11.5264 0H1.00017C0.767649 0 0.579102 0.188499 0.579102 0.421024V8.19425C0.579102 8.42677 0.767649 8.61532 1.00017 8.61532H11.5265C11.759 8.61532 11.9476 8.42677 11.9476 8.19425V0.421024C11.9475 0.188499 11.759 0 11.5264 0Z" fill="#41479B"/>
<g id="Group_2">
<path id="Vector_10" d="M1.76134 0.966599L1.85454 1.2461L2.14917 1.24835C2.18733 1.24868 2.20312 1.29733 2.17245 1.31999L1.93544 1.49504L2.02435 1.77593C2.03589 1.81227 1.99444 1.84242 1.96339 1.82019L1.72371 1.64891L1.48403 1.82024C1.45298 1.84242 1.41163 1.81232 1.42308 1.77597L1.51198 1.49508L1.27498 1.32004C1.24431 1.29733 1.26009 1.24873 1.29825 1.24839L1.59288 1.24615L1.68608 0.966647C1.6981 0.930397 1.74923 0.930397 1.76134 0.966599Z" fill="#F5F5F5"/>
<path id="Vector_11" d="M1.76134 2.42848L1.85454 2.70798L2.14917 2.71022C2.18733 2.71056 2.20312 2.75921 2.17245 2.78187L1.93544 2.95692L2.02435 3.2378C2.03589 3.27415 1.99444 3.30429 1.96339 3.28207L1.72371 3.11079L1.48403 3.28212C1.45298 3.30429 1.41163 3.2742 1.42308 3.23785L1.51198 2.95696L1.27498 2.78191C1.24431 2.75921 1.26009 2.71061 1.29825 2.71027L1.59288 2.70803L1.68608 2.42852C1.6981 2.39232 1.74923 2.39232 1.76134 2.42848Z" fill="#F5F5F5"/>
<path id="Vector_12" d="M1.76134 3.89064L1.85454 4.17014L2.14917 4.17238C2.18733 4.17272 2.20312 4.22137 2.17245 4.24402L1.93544 4.41907L2.02435 4.69996C2.03589 4.73631 1.99444 4.76645 1.96339 4.74423L1.72371 4.57294L1.48403 4.74427C1.45298 4.76645 1.41163 4.73636 1.42308 4.70001L1.51198 4.41912L1.27498 4.24407C1.24431 4.22137 1.26009 4.17276 1.29825 4.17243L1.59288 4.17019L1.68608 3.89068C1.6981 3.85448 1.74923 3.85448 1.76134 3.89064Z" fill="#F5F5F5"/>
<path id="Vector_13" d="M1.76134 5.35283L1.85454 5.63233L2.14917 5.63458C2.18733 5.63491 2.20312 5.68356 2.17245 5.70622L1.93544 5.88127L2.02435 6.16216C2.03589 6.1985 1.99444 6.22865 1.96339 6.20642L1.72371 6.03514L1.48403 6.20647C1.45298 6.22865 1.41163 6.19855 1.42308 6.1622L1.51198 5.88131L1.27498 5.70627C1.24431 5.68356 1.26009 5.63496 1.29825 5.63462L1.59288 5.63238L1.68608 5.35288C1.6981 5.31663 1.74923 5.31663 1.76134 5.35283Z" fill="#F5F5F5"/>
<path id="Vector_14" d="M1.76134 6.81478L1.85454 7.09428L2.14917 7.09653C2.18733 7.09686 2.20312 7.14551 2.17245 7.16817L1.93544 7.34322L2.02435 7.62411C2.03589 7.66045 1.99444 7.6906 1.96339 7.66837L1.72371 7.49709L1.48403 7.66842C1.45298 7.6906 1.41163 7.6605 1.42308 7.62415L1.51198 7.34326L1.27498 7.16822C1.24431 7.14551 1.26009 7.09691 1.29825 7.09657L1.59288 7.09433L1.68608 6.81483C1.6981 6.77853 1.74923 6.77853 1.76134 6.81478Z" fill="#F5F5F5"/>
<path id="Vector_15" d="M2.89611 1.68312L2.98931 1.96263L3.28394 1.96487C3.32209 1.9652 3.33788 2.01385 3.30721 2.03651L3.07021 2.21156L3.15911 2.49245C3.17066 2.52879 3.12921 2.55894 3.09816 2.53671L2.85848 2.36538L2.6188 2.53671C2.58775 2.55889 2.54639 2.52879 2.55784 2.49245L2.64675 2.21156L2.40974 2.03651C2.37907 2.01381 2.39486 1.9652 2.43302 1.96487L2.72764 1.96263L2.82084 1.68312C2.83282 1.64697 2.88404 1.64697 2.89611 1.68312Z" fill="#F5F5F5"/>
<path id="Vector_16" d="M2.89611 3.14532L2.98931 3.42482L3.28394 3.42706C3.32209 3.4274 3.33788 3.47605 3.30721 3.4987L3.07021 3.67375L3.15911 3.95464C3.17066 3.99099 3.12921 4.02113 3.09816 3.99891L2.85848 3.82758L2.6188 3.99891C2.58775 4.02109 2.54639 3.99104 2.55784 3.95464L2.64675 3.67375L2.40974 3.4987C2.37907 3.476 2.39486 3.4274 2.43302 3.42706L2.72764 3.42482L2.82084 3.14532C2.83282 3.10911 2.88404 3.10911 2.89611 3.14532Z" fill="#F5F5F5"/>
<path id="Vector_17" d="M2.89611 4.60747L2.98931 4.88698L3.28394 4.88922C3.32209 4.88956 3.33788 4.93821 3.30721 4.96086L3.07021 5.13591L3.15911 5.4168C3.17066 5.45315 3.12921 5.48329 3.09816 5.46106L2.85848 5.28973L2.6188 5.46106C2.58775 5.48324 2.54639 5.45315 2.55784 5.4168L2.64675 5.13591L2.40974 4.96086C2.37907 4.93816 2.39486 4.88956 2.43302 4.88922L2.72764 4.88698L2.82084 4.60747C2.83282 4.57127 2.88404 4.57127 2.89611 4.60747Z" fill="#F5F5F5"/>
<path id="Vector_18" d="M2.89611 6.0696L2.98931 6.3491L3.28394 6.35134C3.32209 6.35168 3.33788 6.40033 3.30721 6.42299L3.07021 6.59803L3.15911 6.87892C3.17066 6.91527 3.12921 6.94541 3.09816 6.92319L2.85848 6.75186L2.6188 6.92319C2.58775 6.94537 2.54639 6.91527 2.55784 6.87892L2.64675 6.59803L2.40974 6.42299C2.37907 6.40028 2.39486 6.35168 2.43302 6.35134L2.72764 6.3491L2.82084 6.0696C2.83282 6.03344 2.88404 6.03344 2.89611 6.0696Z" fill="#F5F5F5"/>
<path id="Vector_19" d="M4.03088 0.966361L4.12408 1.24587L4.4187 1.24811C4.45686 1.24844 4.47265 1.29709 4.44198 1.31975L4.20497 1.4948L4.29388 1.77569C4.30542 1.81203 4.26397 1.84218 4.23292 1.81995L3.99324 1.64862L3.75356 1.81995C3.72251 1.84213 3.68116 1.81203 3.69261 1.77569L3.78151 1.4948L3.54451 1.31975C3.51384 1.29705 3.52963 1.24844 3.56778 1.24811L3.86241 1.24587L3.95561 0.966361C3.96763 0.930158 4.01881 0.930158 4.03088 0.966361Z" fill="#F5F5F5"/>
<path id="Vector_20" d="M4.03088 2.42848L4.12408 2.70799L4.4187 2.71023C4.45686 2.71056 4.47265 2.75922 4.44198 2.78187L4.20497 2.95692L4.29388 3.23781C4.30542 3.27416 4.26397 3.3043 4.23292 3.28207L3.99324 3.11074L3.75356 3.28207C3.72251 3.30425 3.68116 3.27416 3.69261 3.23781L3.78151 2.95692L3.54451 2.78187C3.51384 2.75917 3.52963 2.71056 3.56778 2.71023L3.86241 2.70799L3.95561 2.42848C3.96763 2.39233 4.01881 2.39233 4.03088 2.42848Z" fill="#F5F5F5"/>
<path id="Vector_21" d="M4.03088 3.89064L4.12408 4.17015L4.4187 4.17239C4.45686 4.17272 4.47265 4.22137 4.44198 4.24403L4.20497 4.41908L4.29388 4.69997C4.30542 4.73631 4.26397 4.76646 4.23292 4.74423L3.99324 4.5729L3.75356 4.74423C3.72251 4.76641 3.68116 4.73631 3.69261 4.69997L3.78151 4.41908L3.54451 4.24403C3.51384 4.22133 3.52963 4.17272 3.56778 4.17239L3.86241 4.17015L3.95561 3.89064C3.96763 3.85449 4.01881 3.85449 4.03088 3.89064Z" fill="#F5F5F5"/>
<path id="Vector_22" d="M4.03088 5.35284L4.12408 5.63234L4.4187 5.63458C4.45686 5.63492 4.47265 5.68357 4.44198 5.70622L4.20497 5.88127L4.29388 6.16216C4.30542 6.19851 4.26397 6.22865 4.23292 6.20643L3.99324 6.0351L3.75356 6.20643C3.72251 6.2286 3.68116 6.19851 3.69261 6.16216L3.78151 5.88127L3.54451 5.70622C3.51384 5.68352 3.52963 5.63492 3.56778 5.63458L3.86241 5.63234L3.95561 5.35284C3.96763 5.31663 4.01881 5.31663 4.03088 5.35284Z" fill="#F5F5F5"/>
<path id="Vector_23" d="M4.03088 6.81479L4.12408 7.09429L4.4187 7.09653C4.45686 7.09687 4.47265 7.14552 4.44198 7.16817L4.20497 7.34322L4.29388 7.62411C4.30542 7.66046 4.26397 7.6906 4.23292 7.66838L3.99324 7.49705L3.75356 7.66838C3.72251 7.69055 3.68116 7.66046 3.69261 7.62411L3.78151 7.34322L3.54451 7.16817C3.51384 7.14547 3.52963 7.09687 3.56778 7.09653L3.86241 7.09429L3.95561 6.81479C3.96763 6.77854 4.01881 6.77854 4.03088 6.81479Z" fill="#F5F5F5"/>
<path id="Vector_24" d="M5.16564 1.68312L5.25884 1.96263L5.55347 1.96487C5.59163 1.9652 5.60741 2.01385 5.57674 2.03651L5.33974 2.21156L5.42864 2.49245C5.44019 2.52879 5.39874 2.55894 5.36769 2.53671L5.12801 2.36538L4.88833 2.53671C4.85728 2.55889 4.81593 2.52879 4.82737 2.49245L4.91628 2.21156L4.67927 2.03651C4.6486 2.01381 4.66439 1.9652 4.70255 1.96487L4.99717 1.96263L5.09038 1.68312C5.10235 1.64697 5.15357 1.64697 5.16564 1.68312Z" fill="#F5F5F5"/>
<path id="Vector_25" d="M5.16564 3.14532L5.25884 3.42482L5.55347 3.42706C5.59163 3.4274 5.60741 3.47605 5.57674 3.4987L5.33974 3.67375L5.42864 3.95464C5.44019 3.99099 5.39874 4.02113 5.36769 3.99891L5.12801 3.82758L4.88833 3.99891C4.85728 4.02109 4.81593 3.99104 4.82737 3.95464L4.91628 3.67375L4.67927 3.4987C4.6486 3.476 4.66439 3.4274 4.70255 3.42706L4.99717 3.42482L5.09038 3.14532C5.10235 3.10911 5.15357 3.10911 5.16564 3.14532Z" fill="#F5F5F5"/>
<path id="Vector_26" d="M5.16564 4.60747L5.25884 4.88698L5.55347 4.88922C5.59163 4.88956 5.60741 4.93821 5.57674 4.96086L5.33974 5.13591L5.42864 5.4168C5.44019 5.45315 5.39874 5.48329 5.36769 5.46106L5.12801 5.28973L4.88833 5.46106C4.85728 5.48324 4.81593 5.45315 4.82737 5.4168L4.91628 5.13591L4.67927 4.96086C4.6486 4.93816 4.66439 4.88956 4.70255 4.88922L4.99717 4.88698L5.09038 4.60747C5.10235 4.57127 5.15357 4.57127 5.16564 4.60747Z" fill="#F5F5F5"/>
<path id="Vector_27" d="M5.16564 6.0696L5.25884 6.3491L5.55347 6.35134C5.59163 6.35168 5.60741 6.40033 5.57674 6.42299L5.33974 6.59803L5.42864 6.87892C5.44019 6.91527 5.39874 6.94541 5.36769 6.92319L5.12801 6.75186L4.88833 6.92319C4.85728 6.94537 4.81593 6.91527 4.82737 6.87892L4.91628 6.59803L4.67927 6.42299C4.6486 6.40028 4.66439 6.35168 4.70255 6.35134L4.99717 6.3491L5.09038 6.0696C5.10235 6.03344 5.15357 6.03344 5.16564 6.0696Z" fill="#F5F5F5"/>
<path id="Vector_28" d="M6.30094 0.966361L6.39414 1.24587L6.68877 1.24811C6.72693 1.24844 6.74271 1.29709 6.71205 1.31975L6.47504 1.4948L6.56395 1.77569C6.57549 1.81203 6.53404 1.84218 6.50299 1.81995L6.26326 1.64862L6.02358 1.81995C5.99253 1.84213 5.95118 1.81203 5.96263 1.77569L6.05153 1.4948L5.81453 1.31975C5.78386 1.29705 5.79964 1.24844 5.8378 1.24811L6.13243 1.24587L6.22563 0.966361C6.2377 0.930158 6.28888 0.930158 6.30094 0.966361Z" fill="#F5F5F5"/>
<path id="Vector_29" d="M6.30094 2.42848L6.39414 2.70799L6.68877 2.71023C6.72693 2.71056 6.74271 2.75922 6.71205 2.78187L6.47504 2.95692L6.56395 3.23781C6.57549 3.27416 6.53404 3.3043 6.50299 3.28207L6.26326 3.11074L6.02358 3.28207C5.99253 3.30425 5.95118 3.27416 5.96263 3.23781L6.05153 2.95692L5.81453 2.78187C5.78386 2.75917 5.79964 2.71056 5.8378 2.71023L6.13243 2.70799L6.22563 2.42848C6.2377 2.39233 6.28888 2.39233 6.30094 2.42848Z" fill="#F5F5F5"/>
<path id="Vector_30" d="M6.30094 3.89064L6.39414 4.17015L6.68877 4.17239C6.72693 4.17272 6.74271 4.22137 6.71205 4.24403L6.47504 4.41908L6.56395 4.69997C6.57549 4.73631 6.53404 4.76646 6.50299 4.74423L6.26326 4.5729L6.02358 4.74423C5.99253 4.76641 5.95118 4.73631 5.96263 4.69997L6.05153 4.41908L5.81453 4.24403C5.78386 4.22133 5.79964 4.17272 5.8378 4.17239L6.13243 4.17015L6.22563 3.89064C6.2377 3.85449 6.28888 3.85449 6.30094 3.89064Z" fill="#F5F5F5"/>
<path id="Vector_31" d="M6.30094 5.35284L6.39414 5.63234L6.68877 5.63458C6.72693 5.63492 6.74271 5.68357 6.71205 5.70622L6.47504 5.88127L6.56395 6.16216C6.57549 6.19851 6.53404 6.22865 6.50299 6.20643L6.26326 6.0351L6.02358 6.20643C5.99253 6.2286 5.95118 6.19851 5.96263 6.16216L6.05153 5.88127L5.81453 5.70622C5.78386 5.68352 5.79964 5.63492 5.8378 5.63458L6.13243 5.63234L6.22563 5.35284C6.2377 5.31663 6.28888 5.31663 6.30094 5.35284Z" fill="#F5F5F5"/>
<path id="Vector_32" d="M6.30094 6.81479L6.39414 7.09429L6.68877 7.09653C6.72693 7.09687 6.74271 7.14552 6.71205 7.16817L6.47504 7.34322L6.56395 7.62411C6.57549 7.66046 6.53404 7.6906 6.50299 7.66838L6.26326 7.49705L6.02358 7.66838C5.99253 7.69055 5.95118 7.66046 5.96263 7.62411L6.05153 7.34322L5.81453 7.16817C5.78386 7.14547 5.79964 7.09687 5.8378 7.09653L6.13243 7.09429L6.22563 6.81479C6.2377 6.77854 6.28888 6.77854 6.30094 6.81479Z" fill="#F5F5F5"/>
<path id="Vector_33" d="M7.43566 1.68312L7.52886 1.96263L7.82349 1.96487C7.86165 1.9652 7.87743 2.01385 7.84676 2.03651L7.60976 2.21156L7.69866 2.49245C7.71021 2.52879 7.66876 2.55894 7.63771 2.53671L7.39803 2.36538L7.15835 2.53671C7.1273 2.55889 7.08594 2.52879 7.09739 2.49245L7.1863 2.21156L6.94929 2.03651C6.91862 2.01381 6.93441 1.9652 6.97257 1.96487L7.26719 1.96263L7.36039 1.68312C7.37246 1.64697 7.42359 1.64697 7.43566 1.68312Z" fill="#F5F5F5"/>
<path id="Vector_34" d="M7.43566 3.14532L7.52886 3.42482L7.82349 3.42706C7.86165 3.4274 7.87743 3.47605 7.84676 3.4987L7.60976 3.67375L7.69866 3.95464C7.71021 3.99099 7.66876 4.02113 7.63771 3.99891L7.39803 3.82758L7.15835 3.99891C7.1273 4.02109 7.08594 3.99104 7.09739 3.95464L7.1863 3.67375L6.94929 3.4987C6.91862 3.476 6.93441 3.4274 6.97257 3.42706L7.26719 3.42482L7.36039 3.14532C7.37246 3.10911 7.42359 3.10911 7.43566 3.14532Z" fill="#F5F5F5"/>
<path id="Vector_35" d="M7.43566 4.60747L7.52886 4.88698L7.82349 4.88922C7.86165 4.88956 7.87743 4.93821 7.84676 4.96086L7.60976 5.13591L7.69866 5.4168C7.71021 5.45315 7.66876 5.48329 7.63771 5.46106L7.39803 5.28973L7.15835 5.46106C7.1273 5.48324 7.08594 5.45315 7.09739 5.4168L7.1863 5.13591L6.94929 4.96086C6.91862 4.93816 6.93441 4.88956 6.97257 4.88922L7.26719 4.88698L7.36039 4.60747C7.37246 4.57127 7.42359 4.57127 7.43566 4.60747Z" fill="#F5F5F5"/>
<path id="Vector_36" d="M7.43566 6.0696L7.52886 6.3491L7.82349 6.35134C7.86165 6.35168 7.87743 6.40033 7.84676 6.42299L7.60976 6.59803L7.69866 6.87892C7.71021 6.91527 7.66876 6.94541 7.63771 6.92319L7.39803 6.75186L7.15835 6.92319C7.1273 6.94537 7.08594 6.91527 7.09739 6.87892L7.1863 6.59803L6.94929 6.42299C6.91862 6.40028 6.93441 6.35168 6.97257 6.35134L7.26719 6.3491L7.36039 6.0696C7.37246 6.03344 7.42359 6.03344 7.43566 6.0696Z" fill="#F5F5F5"/>
<path id="Vector_37" d="M8.57043 0.966361L8.66363 1.24587L8.95825 1.24811C8.99641 1.24844 9.0122 1.29709 8.98153 1.31975L8.74452 1.4948L8.83343 1.77569C8.84497 1.81203 8.80352 1.84218 8.77247 1.81995L8.53279 1.64862L8.29311 1.81995C8.26206 1.84213 8.22071 1.81203 8.23216 1.77569L8.32107 1.4948L8.08406 1.31975C8.05339 1.29705 8.06918 1.24844 8.10733 1.24811L8.40196 1.24587L8.49516 0.966361C8.50713 0.930158 8.55836 0.930158 8.57043 0.966361Z" fill="#F5F5F5"/>
<path id="Vector_38" d="M8.57043 2.42848L8.66363 2.70799L8.95825 2.71023C8.99641 2.71056 9.0122 2.75922 8.98153 2.78187L8.74452 2.95692L8.83343 3.23781C8.84497 3.27416 8.80352 3.3043 8.77247 3.28207L8.53279 3.11074L8.29311 3.28207C8.26206 3.30425 8.22071 3.27416 8.23216 3.23781L8.32107 2.95692L8.08406 2.78187C8.05339 2.75917 8.06918 2.71056 8.10733 2.71023L8.40196 2.70799L8.49516 2.42848C8.50713 2.39233 8.55836 2.39233 8.57043 2.42848Z" fill="#F5F5F5"/>
<path id="Vector_39" d="M8.57043 3.89064L8.66363 4.17015L8.95825 4.17239C8.99641 4.17272 9.0122 4.22137 8.98153 4.24403L8.74452 4.41908L8.83343 4.69997C8.84497 4.73631 8.80352 4.76646 8.77247 4.74423L8.53279 4.5729L8.29311 4.74423C8.26206 4.76641 8.22071 4.73631 8.23216 4.69997L8.32107 4.41908L8.08406 4.24403C8.05339 4.22133 8.06918 4.17272 8.10733 4.17239L8.40196 4.17015L8.49516 3.89064C8.50713 3.85449 8.55836 3.85449 8.57043 3.89064Z" fill="#F5F5F5"/>
<path id="Vector_40" d="M8.57043 5.35284L8.66363 5.63234L8.95825 5.63458C8.99641 5.63492 9.0122 5.68357 8.98153 5.70622L8.74452 5.88127L8.83343 6.16216C8.84497 6.19851 8.80352 6.22865 8.77247 6.20643L8.53279 6.0351L8.29311 6.20643C8.26206 6.2286 8.22071 6.19851 8.23216 6.16216L8.32107 5.88127L8.08406 5.70622C8.05339 5.68352 8.06918 5.63492 8.10733 5.63458L8.40196 5.63234L8.49516 5.35284C8.50713 5.31663 8.55836 5.31663 8.57043 5.35284Z" fill="#F5F5F5"/>
<path id="Vector_41" d="M8.57043 6.81479L8.66363 7.09429L8.95825 7.09653C8.99641 7.09687 9.0122 7.14552 8.98153 7.16817L8.74452 7.34322L8.83343 7.62411C8.84497 7.66046 8.80352 7.6906 8.77247 7.66838L8.53279 7.49705L8.29311 7.66838C8.26206 7.69055 8.22071 7.66046 8.23216 7.62411L8.32107 7.34322L8.08406 7.16817C8.05339 7.14547 8.06918 7.09687 8.10733 7.09653L8.40196 7.09429L8.49516 6.81479C8.50713 6.77854 8.55836 6.77854 8.57043 6.81479Z" fill="#F5F5F5"/>
<path id="Vector_42" d="M9.70519 1.68312L9.79839 1.96263L10.093 1.96487C10.1312 1.9652 10.147 2.01385 10.1163 2.03651L9.87929 2.21156L9.96819 2.49245C9.97974 2.52879 9.93829 2.55894 9.90724 2.53671L9.66756 2.36538L9.42788 2.53671C9.39683 2.55889 9.35548 2.52879 9.36692 2.49245L9.45583 2.21156L9.21882 2.03651C9.18815 2.01381 9.20394 1.9652 9.2421 1.96487L9.53673 1.96263L9.62993 1.68312C9.64195 1.64697 9.69317 1.64697 9.70519 1.68312Z" fill="#F5F5F5"/>
<path id="Vector_43" d="M9.70519 3.14532L9.79839 3.42482L10.093 3.42706C10.1312 3.4274 10.147 3.47605 10.1163 3.4987L9.87929 3.67375L9.96819 3.95464C9.97974 3.99099 9.93829 4.02113 9.90724 3.99891L9.66756 3.82758L9.42788 3.99891C9.39683 4.02109 9.35548 3.99104 9.36692 3.95464L9.45583 3.67375L9.21882 3.4987C9.18815 3.476 9.20394 3.4274 9.2421 3.42706L9.53673 3.42482L9.62993 3.14532C9.64195 3.10911 9.69317 3.10911 9.70519 3.14532Z" fill="#F5F5F5"/>
<path id="Vector_44" d="M9.70519 4.60747L9.79839 4.88698L10.093 4.88922C10.1312 4.88956 10.147 4.93821 10.1163 4.96086L9.87929 5.13591L9.96819 5.4168C9.97974 5.45315 9.93829 5.48329 9.90724 5.46106L9.66756 5.28973L9.42788 5.46106C9.39683 5.48324 9.35548 5.45315 9.36692 5.4168L9.45583 5.13591L9.21882 4.96086C9.18815 4.93816 9.20394 4.88956 9.2421 4.88922L9.53673 4.88698L9.62993 4.60747C9.64195 4.57127 9.69317 4.57127 9.70519 4.60747Z" fill="#F5F5F5"/>
<path id="Vector_45" d="M9.70519 6.0696L9.79839 6.3491L10.093 6.35134C10.1312 6.35168 10.147 6.40033 10.1163 6.42299L9.87929 6.59803L9.96819 6.87892C9.97974 6.91527 9.93829 6.94541 9.90724 6.92319L9.66756 6.75186L9.42788 6.92319C9.39683 6.94537 9.35548 6.91527 9.36692 6.87892L9.45583 6.59803L9.21882 6.42299C9.18815 6.40028 9.20394 6.35168 9.2421 6.35134L9.53673 6.3491L9.62993 6.0696C9.64195 6.03344 9.69317 6.03344 9.70519 6.0696Z" fill="#F5F5F5"/>
<path id="Vector_46" d="M10.8404 0.966361L10.9336 1.24587L11.2283 1.24811C11.2664 1.24844 11.2822 1.29709 11.2515 1.31975L11.0145 1.4948L11.1034 1.77569C11.115 1.81203 11.0735 1.84218 11.0425 1.81995L10.8028 1.64862L10.5631 1.81995C10.5321 1.84213 10.4907 1.81203 10.5022 1.77569L10.5911 1.4948L10.3541 1.31975C10.3234 1.29705 10.3392 1.24844 10.3774 1.24811L10.672 1.24587L10.7652 0.966361C10.7772 0.930158 10.8283 0.930158 10.8404 0.966361Z" fill="#F5F5F5"/>
<path id="Vector_47" d="M10.8404 2.42848L10.9336 2.70799L11.2283 2.71023C11.2664 2.71056 11.2822 2.75922 11.2515 2.78187L11.0145 2.95692L11.1034 3.23781C11.115 3.27416 11.0735 3.3043 11.0425 3.28207L10.8028 3.11074L10.5631 3.28207C10.5321 3.30425 10.4907 3.27416 10.5022 3.23781L10.5911 2.95692L10.3541 2.78187C10.3234 2.75917 10.3392 2.71056 10.3774 2.71023L10.672 2.70799L10.7652 2.42848C10.7772 2.39233 10.8283 2.39233 10.8404 2.42848Z" fill="#F5F5F5"/>
<path id="Vector_48" d="M10.8404 3.89064L10.9336 4.17015L11.2283 4.17239C11.2664 4.17272 11.2822 4.22137 11.2515 4.24403L11.0145 4.41908L11.1034 4.69997C11.115 4.73631 11.0735 4.76646 11.0425 4.74423L10.8028 4.5729L10.5631 4.74423C10.5321 4.76641 10.4907 4.73631 10.5022 4.69997L10.5911 4.41908L10.3541 4.24403C10.3234 4.22133 10.3392 4.17272 10.3774 4.17239L10.672 4.17015L10.7652 3.89064C10.7772 3.85449 10.8283 3.85449 10.8404 3.89064Z" fill="#F5F5F5"/>
<path id="Vector_49" d="M10.8404 5.35284L10.9336 5.63234L11.2283 5.63458C11.2664 5.63492 11.2822 5.68357 11.2515 5.70622L11.0145 5.88127L11.1034 6.16216C11.115 6.19851 11.0735 6.22865 11.0425 6.20643L10.8028 6.0351L10.5631 6.20643C10.5321 6.2286 10.4907 6.19851 10.5022 6.16216L10.5911 5.88127L10.3541 5.70622C10.3234 5.68352 10.3392 5.63492 10.3774 5.63458L10.672 5.63234L10.7652 5.35284C10.7772 5.31663 10.8283 5.31663 10.8404 5.35284Z" fill="#F5F5F5"/>
<path id="Vector_50" d="M10.8404 6.81479L10.9336 7.09429L11.2283 7.09653C11.2664 7.09687 11.2822 7.14552 11.2515 7.16817L11.0145 7.34322L11.1034 7.62411C11.115 7.66046 11.0735 7.6906 11.0425 7.66838L10.8028 7.49705L10.5631 7.66838C10.5321 7.69055 10.4907 7.66046 10.5022 7.62411L10.5911 7.34322L10.3541 7.16817C10.3234 7.14547 10.3392 7.09687 10.3774 7.09653L10.672 7.09429L10.7652 6.81479C10.7772 6.77854 10.8283 6.77854 10.8404 6.81479Z" fill="#F5F5F5"/>
</g>
</g>
</svg>
