<svg width="24" height="16" viewBox="0 0 24 16" fill="none" xmlns="http://www.w3.org/2000/svg">
<path d="M22.6867 0H1.31763C0.591411 0 0 0.566814 0 1.26283V14.7372C0 15.4332 0.591411 16 1.31763 16H22.6823C23.4086 16 24 15.429 24 14.7372V1.26283C24.0043 0.566814 23.4086 0 22.6867 0Z" fill="#00008B"/>
<path fill-rule="evenodd" clip-rule="evenodd" d="M6.98807 9.56079L7.42728 10.8778L8.7797 10.386L7.97955 11.5446L9.22325 12.249L7.78386 12.3699L7.9839 13.7452L6.98807 12.7366L5.98789 13.7452L6.18792 12.3699L4.74854 12.249L5.99224 11.5446L5.19209 10.386L6.54451 10.8778L6.98807 9.56079Z" fill="white"/>
<path fill-rule="evenodd" clip-rule="evenodd" d="M18.7685 11.9363L18.9773 12.5614L19.6209 12.328L19.2425 12.8782L19.8339 13.2158L19.1469 13.2741L19.2425 13.9285L18.7685 13.4492L18.2945 13.9285L18.3859 13.2741L17.7031 13.2158L18.2945 12.8782L17.9119 12.328L18.5555 12.5614L18.7685 11.9363Z" fill="white"/>
<path fill-rule="evenodd" clip-rule="evenodd" d="M18.7685 2.15479L18.9773 2.77995L19.6209 2.54655L19.2425 3.0967L19.8339 3.43428L19.1469 3.49263L19.2425 4.14697L18.7685 3.66768L18.2945 4.14697L18.3859 3.49263L17.7031 3.43428L18.2945 3.0967L17.9119 2.54655L18.5555 2.77995L18.7685 2.15479Z" fill="white"/>
<path fill-rule="evenodd" clip-rule="evenodd" d="M15.7637 6.12646L15.9767 6.7558L16.6203 6.5224L16.2377 7.07254L16.8291 7.41013L16.1463 7.46431L16.2377 8.11865L15.7637 7.63936L15.2897 8.11865L15.3853 7.46431L14.6982 7.41013L15.2897 7.07254L14.9113 6.5224L15.5549 6.7558L15.7637 6.12646Z" fill="white"/>
<path fill-rule="evenodd" clip-rule="evenodd" d="M22.1692 5.14722L22.3823 5.77655L23.0258 5.54315L22.6432 6.0933L23.2346 6.43088L22.5518 6.48923L22.6432 7.1394L22.1692 6.66428L21.6952 7.1394L21.7908 6.48923L21.1038 6.43088L21.6952 6.0933L21.3168 5.54315L21.9604 5.77655L22.1692 5.14722Z" fill="white"/>
<path fill-rule="evenodd" clip-rule="evenodd" d="M20.2992 8.09375L20.4645 8.48552L20.9037 8.51469L20.5688 8.7856L20.6732 9.1982L20.2992 8.97731L19.9253 9.1982L20.0296 8.7856L19.6904 8.51469L20.134 8.48552L20.2992 8.09375Z" fill="white"/>
<path d="M0.100018 0.77937L12.1109 6.53504H13.6372V5.80568L1.52636 0H1.31763C0.774053 0 0.300054 0.320917 0.100018 0.77937ZM13.6372 0V0.729357L1.52636 6.53504H0V5.80568L12.1109 0H13.6372Z" fill="white"/>
<path d="M5.68363 0V6.53504H7.95796V0H5.68363ZM0 2.17973V4.35947H13.6372V2.17973H0Z" fill="white"/>
<path d="M0 2.61318V3.92185H13.6372V2.61318H0ZM6.13589 0V6.53504H7.50135V0H6.13589Z" fill="#FF0000"/>
<path d="M0 6.53504L4.5443 4.3553H5.56187L1.01757 6.53504H0ZM0.208733 0.587653C0.295705 0.458453 0.404421 0.345923 0.53053 0.254233L4.54865 2.17973H3.53107L0.208733 0.587653ZM8.07537 2.17973L12.6197 0H13.6372L9.08859 2.17973H8.07537ZM13.6372 6.53504L9.08859 4.3553H10.1062L13.6329 6.04741V6.53504H13.6372Z" fill="#FF0000"/>
</svg>
