<svg width="20" height="20" viewBox="0 0 20 20" fill="none" xmlns="http://www.w3.org/2000/svg">
<path fill-rule="evenodd" clip-rule="evenodd" d="M5 0C2.23857 0 0 2.23857 0 5V15C0 17.7615 2.23857 20 5 20H15C17.7615 20 20 17.7615 20 15V5C20 2.23857 17.7615 0 15 0H5ZM10 6.36364C7.99169 6.36364 6.36364 7.99169 6.36364 10C6.36364 12.0083 7.99169 13.6364 10 13.6364C12.0083 13.6364 13.6364 12.0083 13.6364 10C13.6364 7.99169 12.0083 6.36364 10 6.36364ZM4.54545 10C4.54545 6.98754 6.98754 4.54545 10 4.54545C13.0125 4.54545 15.4545 6.98754 15.4545 10C15.4545 13.0125 13.0125 15.4545 10 15.4545C6.98754 15.4545 4.54545 13.0125 4.54545 10ZM15.4545 2.72727C14.4504 2.72727 13.6364 3.5413 13.6364 4.54545C13.6364 5.54961 14.4504 6.36364 15.4545 6.36364C16.4587 6.36364 17.2727 5.54961 17.2727 4.54545C17.2727 3.5413 16.4587 2.72727 15.4545 2.72727Z" fill="#D3224D"/>
</svg>
