<svg width="16" height="12" viewBox="0 0 16 12" fill="none" xmlns="http://www.w3.org/2000/svg">
<g id="mail">
<path id="Vector" d="M9.33716 7.79425C8.93909 8.05963 8.47672 8.19991 8 8.19991C7.52331 8.19991 7.06094 8.05963 6.66288 7.79425L0.106531 3.42322C0.0701562 3.39897 0.0347187 3.37369 0 3.34769V10.5101C0 11.3313 0.666406 11.983 1.47291 11.983H14.5271C15.3482 11.983 16 11.3166 16 10.5101V3.34766C15.9652 3.37372 15.9297 3.39906 15.8932 3.42334L9.33716 7.79425Z" fill="white"/>
<path id="Vector_2" d="M0.626562 2.6435L7.18291 7.01456C7.43109 7.18003 7.71553 7.26275 7.99997 7.26275C8.28444 7.26275 8.56891 7.18 8.81709 7.01456L15.3734 2.6435C15.7658 2.38209 16 1.94459 16 1.47241C16 0.6605 15.3395 0 14.5276 0H1.47241C0.660531 3.125e-05 0 0.660531 0 1.47319C0 1.94459 0.23425 2.38209 0.626562 2.6435Z" fill="white"/>
</g>
</svg>
