<svg width="184" height="224" viewBox="0 0 184 224" fill="none" xmlns="http://www.w3.org/2000/svg">
<path d="M69.5166 139.293H6.03516L37.7754 84.3174L69.5166 139.293Z" stroke="#D3224D"/>
<path d="M37.7756 199.77L70.3819 143.294H5.16922L37.7756 199.77Z" fill="#D3224D"/>
<path d="M146.349 137.226L178.956 80.7502H113.743L146.349 137.226Z" fill="#D3224D"/>
<path d="M69.3916 19.3257H5.91016L37.6504 74.3013L69.3916 19.3257Z" stroke="#D3224D"/>
<path d="M105.416 81.627H41.9346L73.6748 136.603L105.416 81.627Z" stroke="#D3224D"/>
<path d="M73.675 22.0239L106.281 78.4998H41.0686L73.675 22.0239Z" fill="#D3224D"/>
<path d="M142.191 138.417H78.71L110.45 83.4414L142.191 138.417Z" stroke="#D3224D"/>
<path d="M43.6851 204.086H107.167L75.4263 149.11L43.6851 204.086Z" stroke="#D3224D"/>
<path d="M167.083 156.927H103.602L135.342 211.903L167.083 156.927Z" stroke="#D3224D"/>
</svg>
