<svg width="64" height="48" viewBox="0 0 64 48" fill="none" xmlns="http://www.w3.org/2000/svg">
<g id="icon">
<path id="Vector" d="M62.0315 12.4837L32.8469 0.145758C32.6223 0.0495873 32.3805 0 32.1361 0C31.8918 0 31.65 0.0495873 31.4254 0.145758L2.09645 12.4393C1.7663 12.5848 1.48543 12.823 1.28788 13.1249C1.09033 13.4268 0.984568 13.7796 0.983408 14.1404C0.982248 14.5012 1.08574 14.8546 1.28135 15.1578C1.47695 15.4609 1.75628 15.7009 2.08549 15.8486C3.81902 16.5913 13.9656 20.8486 15.3893 21.4678L31.4254 28.2309C31.8824 28.4133 32.3928 28.4093 32.8469 28.2198C37.9988 26.0459 51.2971 20.4245 56.2456 18.325C56.2336 19.6998 56.2543 31.2919 56.2456 32.9729C54.0399 33.5292 53.1442 37.2895 54.38 39.3251L52.7475 46.6545C52.6957 46.8744 52.7139 47.105 52.7995 47.314C52.8851 47.5231 53.0339 47.7002 53.225 47.8206C53.4148 47.9448 53.6384 48.0073 53.8651 47.9993C54.0917 47.9914 54.3104 47.9134 54.491 47.7762C55.2805 47.193 56.2305 46.8673 57.2118 46.8433C58.2559 46.8279 59.2755 47.1599 60.1103 47.7873C60.2982 47.9194 60.5221 47.9907 60.7519 47.9915C60.9816 47.9923 61.206 47.9226 61.3949 47.7919C61.5838 47.6611 61.728 47.4755 61.808 47.2602C61.8881 47.0449 61.9002 46.8102 61.8427 46.5878L59.766 39.2918C60.8348 37.4596 60.2535 34.1691 58.4666 33.2506C58.4767 31.5551 58.4595 18.7265 58.4667 17.3922L62.0315 15.8819C62.3596 15.7354 62.6383 15.4969 62.8339 15.1954C63.0295 14.8939 63.1336 14.5422 63.1336 14.1828C63.1336 13.8234 63.0295 13.4717 62.8339 13.1702C62.6383 12.8687 62.3596 12.6302 62.0315 12.4837Z" fill="#D3224D"/>
<path id="Vector_2" d="M30.5598 30.2745C29.2223 29.7102 13.993 23.2735 13.1689 22.934V33.7505C13.1765 34.3312 13.325 34.9014 13.6016 35.4121C13.8782 35.9228 14.2747 36.3587 14.757 36.6823C19.6393 40.0014 25.3692 41.8549 31.2705 42.0239C37.7371 42.1523 44.0883 40.3 49.472 36.7155C49.9663 36.3903 50.3736 35.9491 50.6581 35.4303C50.9427 34.9115 51.0959 34.331 51.1045 33.7394V22.9229C50.3342 23.2571 35.0205 29.7219 33.7137 30.2745C32.7036 30.6908 31.5699 30.6908 30.5598 30.2745Z" fill="#D3224D"/>
</g>
</svg>
