<svg width="63" height="48" viewBox="0 0 63 48" fill="none" xmlns="http://www.w3.org/2000/svg">
<g id="book icon">
<g id="Group">
<g id="Group_2">
<path id="Vector" d="M9.74703 0C9.74534 0 9.74343 0 9.74174 0C9.14752 0 8.58862 0.23164 8.16659 0.652611C7.73991 1.07824 7.50488 1.64496 7.50488 2.24828V35.9609C7.50488 37.1971 8.51458 38.2053 9.75591 38.2085C14.9891 38.221 23.7567 39.3117 29.8051 45.6413V10.3601C29.8051 9.94105 29.6981 9.54737 29.4961 9.22159C24.5318 1.22695 14.992 0.0122695 9.74703 0Z" fill="#D3224D"/>
<path id="Vector_2" d="M55.5979 35.9611V2.24828C55.5979 1.64496 55.3629 1.07824 54.9362 0.652611C54.5142 0.23164 53.9548 0 53.3612 0C53.3593 0 53.3574 0 53.3557 0C48.111 0.012481 38.5712 1.22716 33.6067 9.2218C33.4047 9.54758 33.2979 9.94126 33.2979 10.3603V45.6413C39.3463 39.3117 48.1139 38.221 53.3471 38.2085C54.5882 38.2053 55.5979 37.1971 55.5979 35.9611Z" fill="#D3224D"/>
<path id="Vector_3" d="M60.7195 7.77539H59.0893V35.9616C59.0893 39.1181 56.5176 41.6919 53.3563 41.6997C48.9175 41.7103 41.5985 42.5783 36.415 47.4842C45.3798 45.2892 54.8303 46.7161 60.2162 47.9434C60.8887 48.0966 61.5836 47.9384 62.1224 47.5089C62.6593 47.0805 62.9673 46.4402 62.9673 45.7529V10.0232C62.9675 8.78382 61.9589 7.77539 60.7195 7.77539Z" fill="#D3224D"/>
<path id="Vector_4" d="M4.0118 35.9616V7.77539H2.38165C1.14243 7.77539 0.133789 8.78382 0.133789 10.0232V45.7523C0.133789 46.4398 0.441796 47.0799 0.978693 47.5083C1.51707 47.9375 2.21136 48.0964 2.88491 47.9428C8.2708 46.7152 17.7215 45.2886 26.6859 47.4835C21.5026 42.5779 14.1836 41.7101 9.74483 41.6995C6.58374 41.6919 4.0118 39.1181 4.0118 35.9616Z" fill="#D3224D"/>
</g>
</g>
</g>
</svg>
